<svg width="401" height="401" viewBox="0 0 401 401" fill="none" xmlns="http://www.w3.org/2000/svg">
<path d="M356.024 250.943H211.066C208.473 250.943 206.364 248.833 206.364 246.241V35.0956C206.364 32.5035 208.473 30.3943 211.066 30.3943H356.024C358.616 30.3943 360.725 32.5027 360.725 35.0956V246.241C360.725 248.833 358.616 250.942 356.024 250.942V250.943ZM211.066 30.5948C208.583 30.5948 206.565 32.6142 206.565 35.0956V246.241C206.565 248.723 208.584 250.741 211.066 250.741H356.024C358.506 250.741 360.525 248.722 360.525 246.241V35.0956C360.525 32.6142 358.505 30.5948 356.024 30.5948H211.066Z" fill="#E0E0E0"/>
<path d="M188.865 250.943H43.9063C41.3142 250.943 39.205 248.833 39.205 246.241V35.0956C39.205 32.5035 41.3134 30.3943 43.9063 30.3943H188.865C191.457 30.3943 193.567 32.5027 193.567 35.0956V246.241C193.567 248.833 191.457 250.942 188.865 250.942V250.943ZM43.9063 30.5948C41.4249 30.5948 39.4055 32.6142 39.4055 35.0956V246.241C39.4055 248.723 41.4249 250.741 43.9063 250.741H188.865C191.348 250.741 193.366 248.722 193.366 246.241V35.0956C193.366 32.6142 191.347 30.5948 188.865 30.5948H43.9063Z" fill="#E0E0E0"/>
<path d="M401 299.92H0V300.12H401V299.92Z" fill="#E0E0E0"/>
<path d="M54.321 311.361H41.4409V311.561H54.321V311.361Z" fill="#E0E0E0"/>
<path d="M179.553 309.187H136.622V309.388H179.553V309.187Z" fill="#E0E0E0"/>
<path d="M84.1955 318.811H55.123V319.012H84.1955V318.811Z" fill="#E0E0E0"/>
<path d="M338.077 309.083H303.438V309.284H338.077V309.083Z" fill="#E0E0E0"/>
<path d="M350.299 309.083H345.223V309.284H350.299V309.083Z" fill="#E0E0E0"/>
<path d="M296.822 314.079H253.602V314.28H296.822V314.079Z" fill="#E0E0E0"/>
<path d="M83.8531 261.713C83.8291 260.956 81.2779 185.658 69.0298 173.749C57.1177 162.168 43.4452 173.318 42.8709 173.797L41.6431 172.326C41.7979 172.195 57.2275 159.6 70.3675 172.375C83.165 184.819 85.6689 258.522 85.7683 261.653L83.8531 261.713Z" fill="#E0E0E0"/>
<path d="M84.9045 276.511C84.8163 275.611 76.5341 186.117 109.217 148.608L110.662 149.866C78.5214 186.753 86.7267 275.433 86.8125 276.324L84.9053 276.512L84.9045 276.511Z" fill="#E0E0E0"/>
<path d="M83.696 267.045L81.7832 266.918C81.8506 265.903 88.1799 165.175 64.2057 143.125L65.5034 141.713C90.1488 164.383 83.971 262.863 83.696 267.044V267.045Z" fill="#E0E0E0"/>
<path d="M86.8165 266.989L84.8997 266.974C84.923 264.2 85.6905 198.937 104.229 188.313C108.349 185.949 112.385 185.555 116.223 187.143C127.433 191.779 132.988 211.73 133.219 212.576L131.37 213.081C131.315 212.882 125.831 193.189 115.489 188.914C112.229 187.568 108.762 187.923 105.182 189.975C87.5912 200.056 86.8229 266.32 86.8173 266.988L86.8165 266.989Z" fill="#E0E0E0"/>
<path d="M79.5977 267.036L77.6849 266.927C77.7138 266.412 80.4807 215.354 66.7015 197.364C63.3628 193.007 59.7386 190.929 55.909 191.196C46.8809 191.827 39.3092 205.039 39.2338 205.172L37.5641 204.229C37.8929 203.649 45.7148 189.989 55.7719 189.285C60.2711 188.965 64.4656 191.295 68.2221 196.2C82.4344 214.754 79.7188 264.912 79.5961 267.036L79.5977 267.036Z" fill="#E0E0E0"/>
<path d="M82.6189 273.98C82.2435 269.027 73.6108 152.443 88.8007 131.9L90.3413 133.038C75.5725 153.014 84.4402 272.629 84.5308 273.834L82.6189 273.98Z" fill="#E0E0E0"/>
<path d="M120.355 198.959C120.355 198.959 111.242 202.317 113.951 210.248C116.66 218.179 145.474 231.232 145.474 231.232C145.474 231.232 157.542 220.171 146.46 202.183C135.377 184.194 120.601 193.283 120.355 198.959Z" fill="#EBEBEB"/>
<path d="M80.7414 183.862C80.7414 183.862 90.4448 183.455 90.9965 191.818C91.5475 200.181 69.9753 223.316 69.9753 223.316C69.9753 223.316 54.5809 217.75 57.8868 196.882C61.1934 176.014 78.3306 178.718 80.7414 183.862Z" fill="#EBEBEB"/>
<path d="M72.5265 143.831C72.5265 143.831 78.9954 143.137 78.4749 139.197C77.9544 135.256 53.3266 125.114 38.7968 141.514C38.7968 141.514 48.1008 157.495 61.5503 157.704C74.9998 157.914 72.5265 143.831 72.5265 143.831Z" fill="#EBEBEB"/>
<path d="M84.5813 134.262C84.5813 134.262 78.7235 137.095 77.0818 133.474C75.4401 129.855 90.9765 108.223 111.982 114.456C111.982 114.456 112.539 132.94 101.235 140.23C89.9315 147.521 84.5813 134.262 84.5813 134.262Z" fill="#EBEBEB"/>
<path d="M53.9521 195.771C53.9521 195.771 58.4169 192.166 53.5985 190.406C48.78 188.646 25.1379 189.146 24.8917 212.566C24.8917 212.566 52.4275 217.142 55.836 208.221C59.2445 199.3 53.9521 195.771 53.9521 195.771Z" fill="#EBEBEB"/>
<path d="M110.103 143.244C110.103 143.244 105.638 139.639 110.456 137.88C115.275 136.12 138.917 136.62 139.163 160.04C139.163 160.04 111.627 164.616 108.219 155.695C104.81 146.774 110.102 143.244 110.102 143.244H110.103Z" fill="#EBEBEB"/>
<path d="M95.5455 162.11C95.5455 162.11 95.1525 157.728 98.6901 159.446C102.228 161.164 114.553 174.46 101.777 187.078C101.777 187.078 84.5789 174.34 87.6787 167.708C90.7784 161.075 95.5447 162.111 95.5447 162.111L95.5455 162.11Z" fill="#EBEBEB"/>
<path d="M49.9606 168.354C49.9606 168.354 52.6297 164.857 48.7215 164.424C44.8126 163.99 27.2953 168.665 31.3751 186.153C31.3751 186.153 52.7155 184.549 53.6298 177.284C54.5448 170.02 49.9606 168.354 49.9606 168.354Z" fill="#EBEBEB"/>
<path d="M104.756 300.768H61.7115L50.2621 247.958H115.119L104.756 300.768Z" fill="#F0F0F0"/>
<path d="M118.855 247.193H46.3572V262.38H118.855V247.193Z" fill="#E6E6E6"/>
<path d="M345.368 38.4592H258.491V149.924H345.368V38.4592Z" fill="#E6E6E6"/>
<path d="M341.106 38.4592H239.054V149.924H341.106V38.4592Z" fill="#F0F0F0"/>
<path d="M331.253 48.3591H248.463V140.023H331.253V48.3591Z" fill="white"/>
<path d="M305.544 77.6475H275.658V110.736H305.544V77.6475Z" fill="#F0F0F0"/>
<path d="M200.98 359.598C299.946 359.598 380.173 355.15 380.173 349.662C380.173 344.175 299.946 339.727 200.98 339.727C102.015 339.727 21.788 344.175 21.788 349.662C21.788 355.15 102.015 359.598 200.98 359.598Z" fill="#F5F5F5"/>
<path d="M308.764 66.1377H92.9221V247.523H308.764V66.1377Z" fill="#8B5CF6"/>
<path d="M284.494 91.2153H116.438V221.613H284.494V91.2153Z" fill="#263238"/>
<path d="M258.825 247.523H146.87V265.632H258.825V247.523Z" fill="#8B5CF6"/>
<path d="M272.613 265.631H133.081V277.068H272.613V265.631Z" fill="#8B5CF6"/>
<path d="M314.057 277.069H86.8759V338.086H314.057V277.069Z" fill="#8B5CF6"/>
<path d="M183.895 299.032H94.0161V286.75H183.895V299.032ZM94.6176 298.431H183.293V287.351H94.6176V298.431Z" fill="#263238"/>
<path opacity="0.4" d="M181.149 302.112H171.02C169.67 302.112 168.576 303.206 168.576 304.556V304.897C168.576 306.247 169.67 307.342 171.02 307.342H181.149C182.499 307.342 183.594 306.247 183.594 304.897V304.556C183.594 303.206 182.499 302.112 181.149 302.112Z" fill="black"/>
<path opacity="0.4" d="M162.092 307.106C163.406 307.106 164.472 306.04 164.472 304.726C164.472 303.412 163.406 302.347 162.092 302.347C160.778 302.347 159.713 303.412 159.713 304.726C159.713 306.04 160.778 307.106 162.092 307.106Z" fill="white"/>
<path opacity="0.4" d="M308.422 290.363H236.806V295.419H308.422V290.363Z" fill="black"/>
<path opacity="0.4" d="M308.422 299.723H294.997V304.499H308.422V299.723Z" fill="white"/>
<path opacity="0.4" d="M278.185 325.3C278.185 326.442 277.259 327.368 276.117 327.368C274.975 327.368 274.048 326.442 274.048 325.3C274.048 324.158 274.975 323.232 276.117 323.232C277.259 323.232 278.185 324.158 278.185 325.3Z" fill="black"/>
<path opacity="0.4" d="M283.778 325.3C283.778 326.442 282.852 327.368 281.71 327.368C280.568 327.368 279.641 326.442 279.641 325.3C279.641 324.158 280.568 323.232 281.71 323.232C282.852 323.232 283.778 324.158 283.778 325.3Z" fill="black"/>
<path opacity="0.4" d="M289.371 325.3C289.371 326.442 288.445 327.368 287.303 327.368C286.161 327.368 285.234 326.442 285.234 325.3C285.234 324.158 286.161 323.232 287.303 323.232C288.445 323.232 289.371 324.158 289.371 325.3Z" fill="black"/>
<path opacity="0.4" d="M295.393 320.747C297.907 318.233 301.983 318.233 304.499 320.747C307.013 323.261 307.013 327.339 304.499 329.853C301.984 332.367 297.908 332.367 295.393 329.853C292.878 327.339 292.878 323.262 295.393 320.747Z" fill="black"/>
<path opacity="0.4" d="M272.613 265.631H133.081V277.068H272.613V265.631Z" fill="black"/>
<path opacity="0.4" d="M96.374 318.825H95.7725V327.124H96.374V318.825Z" fill="black"/>
<path opacity="0.4" d="M99.3317 318.825H98.7302V327.124H99.3317V318.825Z" fill="black"/>
<path opacity="0.4" d="M102.29 318.825H101.689V327.124H102.29V318.825Z" fill="black"/>
<path opacity="0.4" d="M105.249 318.825H104.647V327.124H105.249V318.825Z" fill="black"/>
<path opacity="0.4" d="M108.207 318.825H107.605V327.124H108.207V318.825Z" fill="black"/>
<path opacity="0.4" d="M111.165 318.825H110.564V327.124H111.165V318.825Z" fill="black"/>
<path opacity="0.4" d="M114.124 318.825H113.522V327.124H114.124V318.825Z" fill="black"/>
<path opacity="0.4" d="M117.082 318.825H116.48V327.124H117.082V318.825Z" fill="black"/>
<path opacity="0.4" d="M120.04 318.825H119.439V327.124H120.04V318.825Z" fill="black"/>
<path opacity="0.4" d="M122.999 318.825H122.397V327.124H122.999V318.825Z" fill="black"/>
<path opacity="0.4" d="M125.956 318.825H125.355V327.124H125.956V318.825Z" fill="black"/>
<path opacity="0.4" d="M128.915 318.825H128.314V327.124H128.915V318.825Z" fill="black"/>
<path opacity="0.4" d="M131.874 318.825H131.272V327.124H131.874V318.825Z" fill="black"/>
<path opacity="0.4" d="M134.832 318.825H134.231V327.124H134.832V318.825Z" fill="black"/>
<path opacity="0.4" d="M137.79 318.825H137.189V327.124H137.79V318.825Z" fill="black"/>
<path opacity="0.4" d="M140.749 318.825H140.147V327.124H140.749V318.825Z" fill="black"/>
<path opacity="0.4" d="M143.707 318.825H143.106V327.124H143.707V318.825Z" fill="black"/>
<path opacity="0.4" d="M146.665 318.825H146.063V327.124H146.665V318.825Z" fill="black"/>
<path opacity="0.4" d="M149.624 318.825H149.022V327.124H149.624V318.825Z" fill="black"/>
<path opacity="0.4" d="M152.581 318.825H151.98V327.124H152.581V318.825Z" fill="black"/>
<path opacity="0.4" d="M155.54 318.825H154.938V327.124H155.54V318.825Z" fill="black"/>
<path opacity="0.4" d="M158.498 318.825H157.897V327.124H158.498V318.825Z" fill="black"/>
<path opacity="0.4" d="M161.456 318.825H160.855V327.124H161.456V318.825Z" fill="black"/>
<path opacity="0.4" d="M164.415 318.825H163.813V327.124H164.415V318.825Z" fill="black"/>
<path opacity="0.4" d="M167.373 318.825H166.772V327.124H167.373V318.825Z" fill="black"/>
<path opacity="0.4" d="M170.332 318.825H169.73V327.124H170.332V318.825Z" fill="black"/>
<path opacity="0.4" d="M173.29 318.825H172.688V327.124H173.29V318.825Z" fill="black"/>
<path opacity="0.4" d="M176.248 318.825H175.647V327.124H176.248V318.825Z" fill="black"/>
<path opacity="0.4" d="M179.207 318.825H178.605V327.124H179.207V318.825Z" fill="black"/>
<path opacity="0.4" d="M182.165 318.825H181.563V327.124H182.165V318.825Z" fill="black"/>
<path opacity="0.4" d="M185.123 318.825H184.522V327.124H185.123V318.825Z" fill="black"/>
<path opacity="0.4" d="M146.87 247.523H258.825V253.625L146.906 253.395L146.87 247.523Z" fill="black"/>
<path opacity="0.4" d="M116.438 221.613L110.103 226.428H290.829L284.494 221.613H116.438Z" fill="black"/>
<path opacity="0.4" d="M284.494 91.2155L290.829 85.1965H110.103L116.438 91.2155H284.494Z" fill="black"/>
<path opacity="0.4" d="M284.494 221.613L290.829 226.428V85.1965L284.494 91.2155V221.613Z" fill="white"/>
<path opacity="0.4" d="M116.438 221.613L110.103 226.428V85.1965L116.438 91.2155V221.613Z" fill="white"/>
<path opacity="0.2" d="M122.698 95.3201C122.074 96.7244 118.171 213.782 122.698 216.123C127.224 218.464 276.296 219.401 279.252 217.996C282.207 216.591 281.636 98.322 277.69 95.665C273.085 92.5637 122.697 95.3193 122.697 95.3193L122.698 95.3201Z" fill="white"/>
<path d="M308.72 295.72H236.505V290.217H308.777L308.72 295.72ZM237.107 295.118H308.125L308.17 290.818H237.107L237.107 295.118Z" fill="#263238"/>
<path opacity="0.4" d="M314.057 313.538H86.8759V314.139H314.057V313.538Z" fill="black"/>
<path d="M154.499 145.929H132.313V119.523H150.328L154.499 123.872V145.929Z" fill="white"/>
<path d="M154.8 146.23H132.013V119.222H150.457L154.8 123.751V146.23H154.8ZM132.615 145.629H154.198V123.993L150.199 119.823H132.615V145.629Z" fill="black"/>
<path d="M150.175 119.523V123.829L154.499 123.872L150.175 119.523Z" fill="white"/>
<path d="M154.499 124.173H154.496L150.172 124.129C150.007 124.128 149.875 123.994 149.875 123.829V119.522C149.875 119.4 149.948 119.29 150.061 119.244C150.174 119.198 150.303 119.223 150.389 119.31L154.712 123.659C154.798 123.746 154.824 123.876 154.776 123.988C154.729 124.1 154.62 124.173 154.499 124.173ZM150.476 123.531L153.768 123.564L150.476 120.252V123.531Z" fill="black"/>
<path d="M150.017 126.221H136.795V126.822H150.017V126.221Z" fill="black"/>
<path d="M150.017 128.097H136.795V128.698H150.017V128.097Z" fill="black"/>
<path d="M144.522 129.973H136.795V130.574H144.522V129.973Z" fill="black"/>
<path d="M150.017 131.848H136.795V132.449H150.017V131.848Z" fill="black"/>
<path d="M150.017 133.724H136.795V134.325H150.017V133.724Z" fill="black"/>
<path d="M150.017 135.6H136.795V136.201H150.017V135.6Z" fill="black"/>
<path d="M150.017 137.475H136.795V138.076H150.017V137.475Z" fill="black"/>
<path d="M143.406 139.351H136.795V139.952H143.406V139.351Z" fill="black"/>
<path d="M247.898 130.867H225.713V104.46H243.727L247.898 108.809V130.867Z" fill="white"/>
<path d="M248.199 131.167H225.412V104.159H243.856L248.199 108.688V131.167ZM226.014 130.566H247.597V108.93L243.599 104.76H226.014V130.566Z" fill="black"/>
<path d="M243.575 104.46V108.766L247.898 108.809L243.575 104.46Z" fill="white"/>
<path d="M247.898 109.11H247.895L243.571 109.067C243.407 109.066 243.274 108.932 243.274 108.767V104.46C243.274 104.338 243.348 104.228 243.46 104.181C243.573 104.136 243.703 104.161 243.787 104.248L248.111 108.597C248.196 108.684 248.222 108.814 248.175 108.926C248.128 109.038 248.018 109.11 247.897 109.11H247.898ZM243.875 108.469L247.167 108.502L243.875 105.19V108.469Z" fill="black"/>
<path d="M243.417 111.159H230.194V111.76H243.417V111.159Z" fill="black"/>
<path d="M243.417 113.034H230.194V113.635H243.417V113.034Z" fill="black"/>
<path d="M237.921 114.91H230.194V115.511H237.921V114.91Z" fill="black"/>
<path d="M243.417 116.785H230.194V117.387H243.417V116.785Z" fill="black"/>
<path d="M243.417 118.661H230.194V119.263H243.417V118.661Z" fill="black"/>
<path d="M243.417 120.536H230.194V121.138H243.417V120.536Z" fill="black"/>
<path d="M243.417 122.412H230.194V123.014H243.417V122.412Z" fill="black"/>
<path d="M236.805 124.287H230.194V124.889H236.805V124.287Z" fill="black"/>
<path d="M262.477 194.11H240.292V167.704H258.306L262.477 172.053V194.11Z" fill="white"/>
<path d="M262.778 194.411H239.99V167.403H258.434L262.778 171.932V194.411ZM240.592 193.81H262.176V172.174L258.177 168.005H240.592V193.81Z" fill="black"/>
<path d="M258.153 167.704V172.01L262.477 172.053L258.153 167.704Z" fill="white"/>
<path d="M262.477 172.354H262.474L258.15 172.31C257.986 172.309 257.853 172.175 257.853 172.01V167.703C257.853 167.581 257.926 167.471 258.039 167.425C258.152 167.379 258.281 167.405 258.366 167.491L262.69 171.84C262.775 171.927 262.801 172.057 262.754 172.169C262.706 172.281 262.597 172.353 262.476 172.353L262.477 172.354ZM258.454 171.712L261.746 171.745L258.454 168.433V171.712Z" fill="black"/>
<path d="M257.995 174.402H244.773V175.004H257.995V174.402Z" fill="black"/>
<path d="M257.995 176.277H244.773V176.879H257.995V176.277Z" fill="black"/>
<path d="M252.5 178.153H244.773V178.755H252.5V178.153Z" fill="black"/>
<path d="M257.995 180.029H244.773V180.631H257.995V180.029Z" fill="black"/>
<path d="M257.995 181.904H244.773V182.506H257.995V181.904Z" fill="black"/>
<path d="M257.995 183.78H244.773V184.381H257.995V183.78Z" fill="black"/>
<path d="M257.995 185.656H244.773V186.257H257.995V185.656Z" fill="black"/>
<path d="M251.385 187.531H244.773V188.132H251.385V187.531Z" fill="black"/>
<path d="M273.664 206.015H251.479V179.609H269.494L273.664 183.958V206.015Z" fill="white"/>
<path d="M273.966 206.316H251.179V179.308H269.623L273.966 183.837V206.316ZM251.781 205.715H273.364V184.079L269.366 179.91H251.781V205.715Z" fill="black"/>
<path d="M269.341 179.609V183.915L273.664 183.958L269.341 179.609Z" fill="white"/>
<path d="M273.665 184.259H273.662L269.338 184.215C269.174 184.214 269.041 184.08 269.041 183.915V179.608C269.041 179.486 269.114 179.376 269.227 179.33C269.34 179.284 269.47 179.31 269.554 179.396L273.877 183.745C273.963 183.832 273.989 183.962 273.942 184.074C273.894 184.186 273.785 184.258 273.664 184.258L273.665 184.259ZM269.642 183.617L272.934 183.65L269.642 180.338V183.617Z" fill="black"/>
<path d="M269.183 186.307H255.96V186.909H269.183V186.307Z" fill="black"/>
<path d="M269.183 188.183H255.96V188.785H269.183V188.183Z" fill="black"/>
<path d="M263.687 190.058H255.96V190.66H263.687V190.058Z" fill="black"/>
<path d="M269.183 191.934H255.96V192.536H269.183V191.934Z" fill="black"/>
<path d="M269.183 193.81H255.96V194.411H269.183V193.81Z" fill="black"/>
<path d="M269.183 195.685H255.96V196.286H269.183V195.685Z" fill="black"/>
<path d="M269.183 197.561H255.96V198.162H269.183V197.561Z" fill="black"/>
<path d="M262.572 199.437H255.96V200.038H262.572V199.437Z" fill="black"/>
<path d="M219.622 207.891H197.436V181.484H215.451L219.622 185.833V207.891Z" fill="white"/>
<path d="M219.923 208.192H197.136V181.184H215.58L219.923 185.713V208.192ZM197.738 207.59H219.321V185.954L215.323 181.785H197.738V207.59V207.59Z" fill="black"/>
<path d="M215.298 181.484V185.79L219.622 185.833L215.298 181.484Z" fill="white"/>
<path d="M219.622 186.134H219.619L215.295 186.091C215.131 186.09 214.998 185.956 214.998 185.79V181.484C214.998 181.362 215.071 181.252 215.184 181.205C215.297 181.16 215.427 181.185 215.511 181.272L219.835 185.621C219.92 185.708 219.946 185.838 219.899 185.95C219.851 186.062 219.743 186.134 219.622 186.134ZM215.599 185.493L218.891 185.526L215.599 182.214V185.493Z" fill="black"/>
<path d="M215.141 188.183H201.918V188.784H215.141V188.183Z" fill="black"/>
<path d="M215.141 190.058H201.918V190.659H215.141V190.058Z" fill="black"/>
<path d="M209.645 191.934H201.918V192.535H209.645V191.934Z" fill="black"/>
<path d="M215.141 193.81H201.918V194.411H215.141V193.81Z" fill="black"/>
<path d="M215.141 195.685H201.918V196.286H215.141V195.685Z" fill="black"/>
<path d="M215.141 197.561H201.918V198.162H215.141V197.561Z" fill="black"/>
<path d="M215.141 199.437H201.918V200.038H215.141V199.437Z" fill="black"/>
<path d="M208.53 201.312H201.918V201.913H208.53V201.312Z" fill="black"/>
<path d="M262.544 135.375H146.202V178.285H262.544V135.375Z" fill="#8B5CF6"/>
<path opacity="0.7" d="M262.544 135.375H146.202V178.285H262.544V135.375Z" fill="white"/>
<path d="M262.544 135.375H146.202V143.338H262.544V135.375Z" fill="#8B5CF6"/>
<path d="M260.732 141.71H254.356V136.065H260.732V141.71ZM254.957 141.109H260.13V136.666H254.957V141.109Z" fill="black"/>
<path d="M258.728 137.272L255.848 140.158L256.275 140.583L259.155 137.698L258.728 137.272Z" fill="black"/>
<path d="M256.267 137.267L255.853 137.705L258.908 140.588L259.321 140.149L256.267 137.267Z" fill="black"/>
<path d="M155.372 157.936H152.603V166.411H155.372V157.936Z" fill="#8B5CF6"/>
<path d="M257.952 167.894H150.794V156.53H257.951L257.952 167.894ZM151.396 167.292H257.351V157.131H151.395L151.396 167.292Z" fill="black"/>
<path d="M160.072 157.936H157.303V166.411H160.072V157.936Z" fill="#8B5CF6"/>
<path d="M164.771 157.936H162.002V166.411H164.771V157.936Z" fill="#8B5CF6"/>
<path d="M169.47 157.936H166.701V166.411H169.47V157.936Z" fill="#8B5CF6"/>
<path d="M174.17 157.936H171.4V166.411H174.17V157.936Z" fill="#8B5CF6"/>
<path d="M178.868 157.936H176.099V166.411H178.868V157.936Z" fill="#8B5CF6"/>
<path d="M183.568 157.936H180.799V166.411H183.568V157.936Z" fill="#8B5CF6"/>
<path d="M188.267 157.936H185.498V166.411H188.267V157.936Z" fill="#8B5CF6"/>
<path d="M192.967 157.936H190.198V166.411H192.967V157.936Z" fill="#8B5CF6"/>
<path d="M197.666 157.936H194.896V166.411H197.666V157.936Z" fill="#8B5CF6"/>
<path d="M202.365 157.936H199.595V166.411H202.365V157.936Z" fill="#8B5CF6"/>
<path d="M207.064 157.936H204.295V166.411H207.064V157.936Z" fill="#8B5CF6"/>
<path d="M255.539 158.536H152.829V159.138H255.539V158.536Z" fill="white"/>
<path opacity="0.3" d="M254.656 141.41V141.991H260.99V136.366H260.431V141.41H254.656Z" fill="black"/>
<path opacity="0.3" d="M152.603 167.593V169.177H258.943V156.83H257.651V167.593H152.603Z" fill="black"/>
<path d="M332.077 337.847H343.765C349.861 337.847 354.81 342.797 354.81 348.893V349.662H321.031V348.893C321.031 342.797 325.98 337.847 332.076 337.847H332.077Z" fill="#8B5CF6"/>
<path opacity="0.2" d="M354.366 348.604H321.549C321.383 348.604 321.248 348.469 321.248 348.303C321.248 348.137 321.383 348.002 321.549 348.002H354.366C354.532 348.002 354.667 348.137 354.667 348.303C354.667 348.469 354.532 348.604 354.366 348.604Z" fill="black"/>
<path d="M53.0876 331.94H37.5512V337.25H53.0876V331.94Z" fill="#8B5CF6"/>
<path opacity="0.4" d="M53.0876 331.94H37.5512V337.25H53.0876V331.94Z" fill="black"/>
<path d="M67.6703 331.94H56.8425V337.25H67.6703V331.94Z" fill="#8B5CF6"/>
<path opacity="0.4" d="M67.6703 331.94H56.8425V337.25H67.6703V331.94Z" fill="black"/>
<path d="M82.2988 331.94H71.471V337.25H82.2988V331.94Z" fill="#8B5CF6"/>
<path opacity="0.4" d="M82.2988 331.94H71.471V337.25H82.2988V331.94Z" fill="black"/>
<path d="M96.9273 331.94H86.0995V337.25H96.9273V331.94Z" fill="#8B5CF6"/>
<path opacity="0.4" d="M96.9273 331.94H86.0995V337.25H96.9273V331.94Z" fill="black"/>
<path d="M166.684 331.94H158.365V337.25H166.684V331.94Z" fill="#8B5CF6"/>
<path opacity="0.4" d="M166.684 331.94H158.365V337.25H166.684V331.94Z" fill="black"/>
<path d="M178.995 331.94H170.675V337.25H178.995V331.94Z" fill="#8B5CF6"/>
<path opacity="0.4" d="M178.995 331.94H170.675V337.25H178.995V331.94Z" fill="black"/>
<path d="M191.306 331.94H182.986V337.25H191.306V331.94Z" fill="#8B5CF6"/>
<path opacity="0.4" d="M191.306 331.94H182.986V337.25H191.306V331.94Z" fill="black"/>
<path d="M203.616 331.94H195.296V337.25H203.616V331.94Z" fill="#8B5CF6"/>
<path opacity="0.4" d="M203.616 331.94H195.296V337.25H203.616V331.94Z" fill="black"/>
<path d="M236.973 331.94H228.653V337.25H236.973V331.94Z" fill="#8B5CF6"/>
<path opacity="0.4" d="M236.973 331.94H228.653V337.25H236.973V331.94Z" fill="black"/>
<path d="M249.108 331.94H240.788V337.25H249.108V331.94Z" fill="#8B5CF6"/>
<path opacity="0.4" d="M249.108 331.94H240.788V337.25H249.108V331.94Z" fill="black"/>
<path d="M261.243 331.94H252.923V337.25H261.243V331.94Z" fill="#8B5CF6"/>
<path opacity="0.4" d="M261.243 331.94H252.923V337.25H261.243V331.94Z" fill="black"/>
<path d="M287.559 331.94H265.058V337.25H287.559V331.94Z" fill="#8B5CF6"/>
<path opacity="0.4" d="M287.559 331.94H265.058V337.25H287.559V331.94Z" fill="black"/>
<path d="M223.809 331.94H207.607V337.25H223.809V331.94Z" fill="#8B5CF6"/>
<path opacity="0.4" d="M223.809 331.94H207.607V337.25H223.809V331.94Z" fill="black"/>
<path d="M153.979 331.94H100.728V337.25H153.979V331.94Z" fill="#8B5CF6"/>
<path opacity="0.4" d="M153.979 331.94H100.728V337.25H153.979V331.94Z" fill="black"/>
<path d="M291.844 336.244H33.4249V347.233H291.844V336.244Z" fill="#8B5CF6"/>
<path opacity="0.3" d="M291.844 336.244H33.4249V347.233H291.844V336.244Z" fill="black"/>
<path opacity="0.2" d="M291.253 343.454H34.3079V344.056H291.253V343.454Z" fill="black"/>
</svg>
