<svg width="401" height="401" viewBox="0 0 401 401" fill="none" xmlns="http://www.w3.org/2000/svg">
<path d="M28.479 169.126C28.479 169.126 21.8305 233.286 69.2206 286.483C116.611 339.679 189.906 357.5 249.029 373.516C308.152 389.532 358.598 364.91 372.489 315.186C386.38 265.462 342.815 241.322 326.037 178.189C309.259 115.055 314.055 96.3845 266.593 50.0931C219.13 3.80165 134.263 9.34348 82.9348 62.0188C31.6068 114.694 28.479 169.126 28.479 169.126Z" fill="#8B5CF6"/>
<path opacity="0.7" d="M28.479 169.126C28.479 169.126 21.8305 233.286 69.2206 286.483C116.611 339.679 189.906 357.5 249.029 373.516C308.152 389.532 358.598 364.91 372.489 315.186C386.38 265.462 342.815 241.322 326.037 178.189C309.259 115.055 314.055 96.3845 266.593 50.0931C219.13 3.80165 134.263 9.34348 82.9348 62.0188C31.6068 114.694 28.479 169.126 28.479 169.126Z" fill="white"/>
<path d="M264.427 65.0181H136.067C129.636 65.0181 124.422 70.2317 124.422 76.6631V349.311C124.422 355.742 129.636 360.956 136.067 360.956H264.427C270.859 360.956 276.072 355.742 276.072 349.311V76.6631C276.072 70.2317 270.859 65.0181 264.427 65.0181Z" fill="#263238"/>
<mask id="mask0_6_14044" style="mask-type:luminance" maskUnits="userSpaceOnUse" x="124" y="65" width="153" height="296">
<path d="M264.427 65.0181H136.067C129.636 65.0181 124.422 70.2317 124.422 76.6631V349.311C124.422 355.742 129.636 360.956 136.067 360.956H264.427C270.859 360.956 276.072 355.742 276.072 349.311V76.6631C276.072 70.2317 270.859 65.0181 264.427 65.0181Z" fill="white"/>
</mask>
<g mask="url(#mask0_6_14044)">
<path opacity="0.2" d="M137.487 65.0181C135.771 65.0181 134.071 65.3563 132.485 66.0133C130.9 66.6704 129.459 67.6334 128.246 68.8474C127.033 70.0614 126.071 71.5026 125.414 73.0886C124.758 74.6746 124.421 76.3743 124.422 78.0907V347.883C124.42 349.796 124.838 351.685 125.647 353.418C126.457 355.15 127.638 356.683 129.106 357.908L217.583 65.0181H137.487Z" fill="white"/>
<path d="M205.392 352.399C205.392 351.378 205.09 350.381 204.523 349.533C203.956 348.685 203.15 348.024 202.207 347.633C201.264 347.243 200.227 347.142 199.226 347.341C198.226 347.541 197.307 348.033 196.586 348.755C195.865 349.477 195.375 350.397 195.177 351.397C194.979 352.398 195.082 353.435 195.473 354.378C195.865 355.32 196.527 356.125 197.376 356.69C198.225 357.256 199.223 357.557 200.243 357.555C200.92 357.556 201.591 357.424 202.217 357.165C202.843 356.906 203.411 356.526 203.889 356.047C204.368 355.568 204.747 354.999 205.005 354.373C205.263 353.747 205.394 353.076 205.392 352.399Z" stroke="white" stroke-linecap="round" stroke-linejoin="round"/>
</g>
<path d="M264.427 65.0181H136.067C129.636 65.0181 124.422 70.2317 124.422 76.6631V349.311C124.422 355.742 129.636 360.956 136.067 360.956H264.427C270.859 360.956 276.072 355.742 276.072 349.311V76.6631C276.072 70.2317 270.859 65.0181 264.427 65.0181Z" stroke="#263238" stroke-linecap="round" stroke-linejoin="round"/>
<path d="M269.32 85.1162H131.159V343.392H269.32V85.1162Z" fill="white" stroke="#263238" stroke-linecap="round" stroke-linejoin="round"/>
<path d="M264.62 87.7949H253.167V94.0746H264.62V87.7949Z" stroke="#263238" stroke-width="0.821067" stroke-linecap="round" stroke-linejoin="round"/>
<path d="M262.102 87.7949H253.167V94.0746H262.102V87.7949Z" fill="#263238" stroke="#263238" stroke-width="0.725073" stroke-linecap="round" stroke-linejoin="round"/>
<path d="M266.208 89.5513H264.596V92.3182H266.208V89.5513Z" fill="#263238" stroke="#263238" stroke-width="0.725073" stroke-linecap="round" stroke-linejoin="round"/>
<path d="M136.372 89.7437H134.271V93.3446H136.372V89.7437Z" fill="#263238" stroke="#263238" stroke-width="0.883086" stroke-linecap="round" stroke-linejoin="round"/>
<path d="M139.676 88.4766H137.575V93.3447H139.676V88.4766Z" fill="#263238" stroke="#263238" stroke-width="0.883086" stroke-linecap="round" stroke-linejoin="round"/>
<path d="M142.973 86.9849H140.871V93.3447H142.973V86.9849Z" fill="#263238" stroke="#263238" stroke-width="0.883086" stroke-linecap="round" stroke-linejoin="round"/>
<path d="M266.055 97.5713H133.389V107.548H266.055V97.5713Z" fill="#8B5CF6"/>
<path d="M258.116 239.565H217.342C216.006 239.565 214.725 240.096 213.781 241.04C212.836 241.985 212.305 243.266 212.305 244.602V249.606L202.232 254.137L212.305 256.84V259.968C212.305 261.304 212.836 262.585 213.781 263.529C214.725 264.474 216.006 265.005 217.342 265.005H258.156C259.492 265.005 260.773 264.474 261.717 263.529C262.662 262.585 263.192 261.304 263.192 259.968V244.61C263.193 243.944 263.063 243.285 262.807 242.671C262.552 242.056 262.178 241.498 261.706 241.029C261.234 240.56 260.673 240.189 260.057 239.938C259.441 239.686 258.781 239.56 258.116 239.565Z" fill="white" stroke="#263238" stroke-miterlimit="10"/>
<path d="M230.591 252.694C230.591 253.115 230.466 253.526 230.232 253.876C229.998 254.225 229.666 254.498 229.277 254.658C228.888 254.819 228.461 254.861 228.048 254.778C227.636 254.695 227.257 254.492 226.96 254.194C226.663 253.896 226.461 253.517 226.38 253.104C226.299 252.691 226.342 252.263 226.505 251.875C226.667 251.487 226.94 251.156 227.291 250.923C227.641 250.691 228.053 250.567 228.474 250.569C228.752 250.569 229.028 250.624 229.286 250.731C229.543 250.838 229.777 250.994 229.974 251.192C230.17 251.389 230.326 251.624 230.432 251.881C230.538 252.139 230.592 252.415 230.591 252.694Z" fill="#263238"/>
<path d="M239.862 252.694C239.861 253.113 239.735 253.521 239.501 253.868C239.268 254.215 238.937 254.486 238.55 254.645C238.163 254.804 237.737 254.844 237.327 254.762C236.917 254.679 236.54 254.477 236.245 254.18C235.95 253.884 235.749 253.507 235.668 253.096C235.587 252.686 235.629 252.26 235.79 251.874C235.95 251.488 236.221 251.157 236.569 250.925C236.917 250.693 237.326 250.569 237.745 250.569C238.024 250.569 238.3 250.624 238.557 250.731C238.814 250.838 239.048 250.994 239.245 251.192C239.442 251.389 239.597 251.624 239.703 251.881C239.809 252.139 239.863 252.415 239.862 252.694Z" fill="#263238"/>
<path d="M249.141 252.694C249.141 253.114 249.017 253.525 248.783 253.875C248.55 254.224 248.218 254.497 247.829 254.658C247.441 254.819 247.014 254.861 246.601 254.779C246.189 254.697 245.81 254.494 245.513 254.197C245.216 253.9 245.013 253.521 244.931 253.109C244.849 252.697 244.892 252.269 245.052 251.881C245.213 251.492 245.486 251.161 245.835 250.927C246.185 250.694 246.596 250.569 247.016 250.569C247.58 250.569 248.12 250.793 248.519 251.191C248.917 251.59 249.141 252.13 249.141 252.694Z" fill="#263238"/>
<path d="M258.116 119.265H217.342C216.008 119.265 214.728 119.795 213.783 120.738C212.839 121.68 212.308 122.959 212.305 124.294V129.306L202.232 133.838L212.305 136.54V139.668C212.305 141.004 212.836 142.285 213.781 143.23C214.725 144.174 216.006 144.705 217.342 144.705H258.156C259.492 144.705 260.773 144.174 261.717 143.23C262.662 142.285 263.192 141.004 263.192 139.668V124.31C263.193 123.644 263.063 122.985 262.807 122.371C262.552 121.756 262.178 121.198 261.706 120.729C261.234 120.26 260.673 119.889 260.057 119.638C259.441 119.387 258.781 119.26 258.116 119.265Z" fill="white" stroke="#263238" stroke-miterlimit="10"/>
<path d="M230.591 132.394C230.591 132.815 230.466 133.226 230.232 133.575C229.998 133.925 229.666 134.198 229.277 134.358C228.888 134.519 228.461 134.56 228.048 134.478C227.636 134.395 227.257 134.192 226.96 133.894C226.663 133.596 226.461 133.216 226.38 132.804C226.299 132.391 226.342 131.963 226.505 131.575C226.667 131.187 226.94 130.855 227.291 130.623C227.641 130.39 228.053 130.267 228.474 130.269C228.752 130.269 229.028 130.324 229.286 130.431C229.543 130.537 229.777 130.694 229.974 130.892C230.17 131.089 230.326 131.323 230.432 131.581C230.538 131.839 230.592 132.115 230.591 132.394Z" fill="#263238"/>
<path d="M239.862 132.394C239.861 132.812 239.735 133.221 239.501 133.568C239.268 133.915 238.937 134.185 238.55 134.344C238.163 134.503 237.737 134.544 237.327 134.461C236.917 134.379 236.54 134.177 236.245 133.88C235.95 133.584 235.749 133.206 235.668 132.796C235.587 132.385 235.629 131.96 235.79 131.574C235.95 131.187 236.221 130.857 236.569 130.625C236.917 130.393 237.326 130.269 237.745 130.269C238.024 130.269 238.3 130.324 238.557 130.43C238.814 130.537 239.048 130.694 239.245 130.892C239.442 131.089 239.597 131.323 239.703 131.581C239.809 131.839 239.863 132.115 239.862 132.394Z" fill="#263238"/>
<path d="M249.141 132.394C249.141 132.814 249.017 133.225 248.783 133.575C248.55 133.924 248.218 134.197 247.829 134.357C247.441 134.518 247.014 134.56 246.601 134.478C246.189 134.396 245.81 134.194 245.513 133.897C245.216 133.599 245.013 133.221 244.931 132.808C244.849 132.396 244.892 131.969 245.052 131.581C245.213 131.192 245.486 130.86 245.835 130.627C246.185 130.393 246.596 130.269 247.016 130.269C247.58 130.269 248.12 130.492 248.519 130.891C248.917 131.29 249.141 131.83 249.141 132.394Z" fill="#263238"/>
<path d="M143.069 304.76H183.883C185.218 304.76 186.499 305.29 187.444 306.235C188.388 307.179 188.919 308.461 188.919 309.796V314.801L198.992 319.332L188.919 322.035V325.163C188.919 326.498 188.388 327.78 187.444 328.724C186.499 329.669 185.218 330.199 183.883 330.199H143.069C141.733 330.199 140.452 329.669 139.507 328.724C138.563 327.78 138.032 326.498 138.032 325.163V309.828C138.028 309.164 138.155 308.506 138.406 307.891C138.658 307.276 139.028 306.717 139.496 306.246C139.964 305.775 140.521 305.401 141.134 305.146C141.747 304.891 142.405 304.76 143.069 304.76Z" fill="white" stroke="#263238" stroke-miterlimit="10"/>
<path d="M170.593 317.921C170.592 318.342 170.715 318.754 170.948 319.104C171.181 319.455 171.513 319.729 171.902 319.891C172.29 320.052 172.718 320.095 173.131 320.013C173.544 319.932 173.924 319.729 174.221 319.431C174.519 319.134 174.722 318.754 174.804 318.341C174.885 317.928 174.843 317.5 174.681 317.112C174.519 316.723 174.245 316.391 173.894 316.158C173.544 315.925 173.132 315.802 172.711 315.803C172.149 315.803 171.611 316.026 171.214 316.423C170.816 316.82 170.593 317.359 170.593 317.921Z" fill="#263238"/>
<path d="M161.322 317.921C161.322 318.339 161.446 318.749 161.679 319.097C161.912 319.445 162.242 319.716 162.629 319.877C163.016 320.037 163.442 320.079 163.853 319.997C164.263 319.915 164.641 319.714 164.937 319.418C165.233 319.122 165.434 318.744 165.516 318.334C165.598 317.923 165.556 317.497 165.396 317.11C165.235 316.723 164.964 316.393 164.616 316.16C164.268 315.927 163.858 315.803 163.44 315.803C162.878 315.803 162.339 316.026 161.942 316.423C161.545 316.82 161.322 317.359 161.322 317.921Z" fill="#263238"/>
<path d="M152.043 317.921C152.042 318.341 152.165 318.753 152.397 319.103C152.63 319.454 152.961 319.728 153.35 319.89C153.738 320.052 154.165 320.095 154.578 320.014C154.991 319.933 155.37 319.731 155.668 319.434C155.966 319.137 156.17 318.759 156.252 318.346C156.335 317.934 156.293 317.506 156.133 317.117C155.972 316.728 155.7 316.396 155.35 316.162C155 315.928 154.589 315.803 154.168 315.803C153.606 315.803 153.067 316.026 152.668 316.423C152.27 316.82 152.045 317.358 152.043 317.921Z" fill="#263238"/>
<path d="M143.069 182.856H183.883C185.218 182.856 186.499 183.387 187.444 184.331C188.388 185.276 188.919 186.557 188.919 187.893V192.897L198.992 197.428L188.919 200.131V203.259C188.919 204.595 188.388 205.876 187.444 206.82C186.499 207.765 185.218 208.295 183.883 208.295H143.069C141.733 208.295 140.452 207.765 139.507 206.82C138.563 205.876 138.032 204.595 138.032 203.259V187.885C138.034 186.55 138.566 185.271 139.51 184.328C140.455 183.385 141.734 182.856 143.069 182.856Z" fill="white" stroke="#263238" stroke-miterlimit="10"/>
<path d="M170.593 195.976C170.593 196.397 170.718 196.808 170.952 197.158C171.186 197.508 171.518 197.78 171.907 197.941C172.296 198.101 172.724 198.143 173.136 198.06C173.549 197.978 173.927 197.774 174.224 197.476C174.521 197.178 174.723 196.799 174.804 196.386C174.885 195.973 174.842 195.546 174.68 195.157C174.518 194.769 174.244 194.438 173.894 194.205C173.543 193.973 173.131 193.85 172.711 193.851C172.432 193.851 172.156 193.906 171.899 194.013C171.641 194.12 171.407 194.277 171.211 194.474C171.014 194.672 170.858 194.906 170.752 195.164C170.646 195.421 170.592 195.698 170.593 195.976Z" fill="#263238"/>
<path d="M161.322 195.976C161.324 196.395 161.449 196.803 161.683 197.15C161.917 197.498 162.248 197.768 162.635 197.927C163.022 198.086 163.447 198.127 163.858 198.044C164.268 197.961 164.644 197.759 164.94 197.463C165.235 197.166 165.436 196.789 165.517 196.378C165.598 195.968 165.555 195.543 165.395 195.156C165.234 194.77 164.963 194.44 164.615 194.207C164.267 193.975 163.858 193.851 163.44 193.851C163.161 193.851 162.885 193.906 162.627 194.013C162.37 194.12 162.136 194.277 161.94 194.474C161.743 194.671 161.587 194.906 161.481 195.164C161.375 195.421 161.321 195.698 161.322 195.976Z" fill="#263238"/>
<path d="M152.043 195.976C152.043 196.397 152.168 196.808 152.401 197.157C152.635 197.507 152.967 197.779 153.355 197.94C153.743 198.101 154.171 198.143 154.583 198.061C154.995 197.979 155.374 197.776 155.671 197.479C155.968 197.182 156.171 196.803 156.253 196.391C156.335 195.979 156.293 195.551 156.132 195.163C155.971 194.775 155.699 194.443 155.349 194.209C155 193.976 154.589 193.851 154.168 193.851C153.605 193.851 153.064 194.075 152.666 194.474C152.267 194.872 152.043 195.413 152.043 195.976Z" fill="#263238"/>
<path d="M202.473 179.56C201.527 175.381 197.869 159.678 195.584 156.598C192.945 153.038 177.675 144.769 175.494 143.277C173.312 141.786 169.984 140.639 168.949 140.639C168.949 140.639 160.568 143.51 152.308 145.691C144.047 147.873 139.476 149.364 138.529 152.107C137.727 154.513 134.062 174.74 133.204 179.544L202.473 179.56Z" fill="#616161" stroke="#263238" stroke-linecap="round" stroke-linejoin="round"/>
<path d="M152.38 178.124C152.032 172.13 151.693 166.142 151.361 160.159" stroke="#263238" stroke-linecap="round" stroke-linejoin="round"/>
<path d="M175.149 159.004C179.055 158.435 181.236 151.313 181.813 148.33C181.894 147.897 181.974 147.528 182.046 147.167C178.934 145.33 176.304 143.839 175.494 143.277C173.312 141.786 169.984 140.639 168.949 140.639C168.949 140.639 165.894 141.689 161.651 142.997C162.221 144.296 163.672 147.504 165.854 151.778C168.725 157.4 171.251 159.598 175.149 159.004Z" fill="white" stroke="#263238" stroke-linecap="round" stroke-linejoin="round"/>
<path d="M166.423 130.188C166.423 130.188 165.276 142.018 165.164 142.708C165.052 143.397 166.656 147.985 169.414 152.235C172.173 156.486 175.83 156.141 177.675 152.46C179.054 149.385 180.167 146.197 181.003 142.932C179.219 142.549 177.542 141.775 176.092 140.665C174.643 139.556 173.458 138.139 172.622 136.516C169.872 130.998 167.57 128.584 166.423 130.188Z" fill="#B2B2B2" stroke="#263238" stroke-linecap="round" stroke-linejoin="round"/>
<path d="M174.347 102.063C174.347 102.063 167 104.244 164.362 109.986C162.213 114.654 163.44 121.928 164.362 124.334C165.284 126.74 165.621 131.456 167.345 135.707C169.07 139.957 173.657 145.331 177.563 146.133C181.469 146.935 189.16 140.735 191.197 137.872C193.234 135.009 192.576 130.06 192.801 129.258C193.025 128.456 196.009 122.714 195.672 115.624C195.335 108.535 185.487 100.114 174.347 102.063Z" fill="#B2B2B2" stroke="#263238" stroke-linecap="round" stroke-linejoin="round"/>
<path d="M188.47 128.472C188.47 128.472 189.505 135.129 187.893 135.818C186.281 136.508 183.185 135.474 182.728 134.551" stroke="#263238" stroke-linecap="round" stroke-linejoin="round"/>
<path d="M181.813 138.113C180.035 137.282 178.494 136.019 177.33 134.439C177.33 134.439 174.804 138.225 177.563 139.251C178.297 139.562 179.114 139.619 179.884 139.413C180.654 139.207 181.333 138.749 181.813 138.113Z" fill="#263238" stroke="#263238" stroke-linecap="round" stroke-linejoin="round"/>
<path d="M183.153 128.264C182.872 129.17 182.279 129.796 181.821 129.659C181.364 129.523 181.228 128.673 181.501 127.759C181.773 126.844 182.375 126.227 182.824 126.363C183.273 126.499 183.425 127.35 183.153 128.264Z" fill="#263238"/>
<path d="M191.189 129.523C190.908 130.437 190.315 131.063 189.857 130.918C189.4 130.774 189.264 129.932 189.537 129.025C189.809 128.119 190.411 127.486 190.868 127.622C191.325 127.758 191.461 128.616 191.189 129.523Z" fill="#263238"/>
<path d="M185.487 124.173C185.296 124.175 185.112 124.104 184.973 123.973C182.832 121.92 180.434 123.813 180.33 123.893C180.254 123.954 180.168 124 180.075 124.027C179.982 124.055 179.884 124.064 179.788 124.054C179.692 124.044 179.598 124.015 179.513 123.969C179.428 123.922 179.352 123.86 179.291 123.785C179.23 123.709 179.184 123.623 179.157 123.53C179.129 123.437 179.12 123.339 179.13 123.243C179.14 123.146 179.169 123.053 179.215 122.968C179.262 122.882 179.324 122.807 179.399 122.746C180.325 121.954 181.511 121.532 182.729 121.56C183.947 121.589 185.111 122.065 186 122.898C186.138 123.038 186.216 123.227 186.216 123.424C186.216 123.62 186.138 123.809 186 123.949C185.933 124.018 185.854 124.074 185.766 124.112C185.678 124.151 185.583 124.172 185.487 124.173Z" fill="#263238"/>
<path d="M193.98 126.716C193.856 126.716 193.734 126.685 193.625 126.626C193.516 126.567 193.423 126.482 193.354 126.379C193.208 126.087 192.999 125.831 192.743 125.629C192.486 125.426 192.188 125.283 191.87 125.208C191.314 125.185 190.769 125.368 190.339 125.722C190.267 125.786 190.182 125.836 190.091 125.869C189.999 125.901 189.903 125.915 189.806 125.909C189.709 125.904 189.614 125.88 189.527 125.838C189.439 125.796 189.361 125.738 189.296 125.665C189.231 125.593 189.181 125.509 189.149 125.418C189.117 125.326 189.103 125.229 189.108 125.132C189.113 125.036 189.138 124.941 189.179 124.853C189.221 124.766 189.28 124.688 189.352 124.623C189.723 124.301 190.155 124.057 190.622 123.905C191.089 123.754 191.582 123.698 192.071 123.741C192.604 123.836 193.109 124.051 193.548 124.369C193.987 124.687 194.348 125.1 194.605 125.577C194.678 125.689 194.718 125.818 194.723 125.952C194.728 126.085 194.697 126.217 194.633 126.333C194.568 126.45 194.474 126.547 194.359 126.615C194.244 126.682 194.113 126.717 193.98 126.716Z" fill="#263238"/>
<path d="M164.554 124.919C164.602 125.064 164.643 125.208 164.683 125.361V125.457C164.731 125.617 164.771 125.786 164.811 125.954V126.002C164.811 126.195 164.899 126.387 164.939 126.588L168.564 125.786C168.564 125.786 171.893 126.475 172.358 125.329C172.823 124.182 170.634 122.457 172.238 120.741C173.842 119.025 178.325 120.164 178.782 117.982C179.239 115.801 180.386 107.997 189.689 110.403C191.586 111.021 193.405 111.855 195.111 112.889C192.849 106.538 184.059 100.314 174.307 102.022C174.307 102.022 166.96 104.204 164.322 109.946C162.172 114.614 163.399 121.888 164.322 124.294C164.378 124.446 164.434 124.615 164.49 124.783L164.554 124.919Z" fill="#263238" stroke="#263238" stroke-linecap="round" stroke-linejoin="round"/>
<path d="M170.216 127.783C170.216 127.783 169.182 123.308 166.423 122.843C163.664 122.377 162.638 125.714 163.215 128.697C163.792 131.681 166.768 134.439 169.414 133.637" fill="#B2B2B2"/>
<path d="M170.216 127.783C170.216 127.783 169.182 123.308 166.423 122.843C163.664 122.377 162.638 125.714 163.215 128.697C163.792 131.681 166.768 134.439 169.414 133.637" stroke="#263238" stroke-linecap="round" stroke-linejoin="round"/>
<path d="M179.311 179.56C181.404 177.282 186.273 171.997 186.633 171.636C186.994 171.275 187.78 171.179 190.419 170.489C193.057 169.799 197.42 168.307 198.11 167.73C199.144 167.07 200.074 166.259 200.869 165.324C201.429 164.401 201.928 163.442 202.361 162.453C202.705 161.875 205.456 160.616 206.146 160.047C206.836 159.477 207.526 158.331 207.293 157.753C207.06 157.176 203.05 158.331 199.377 159.133C197.411 159.587 195.414 159.892 193.402 160.047C193.402 160.047 195.471 157.063 196.731 155.684C197.99 154.305 197.533 151.321 196.618 152.476C195.704 153.631 189.849 159.598 188.598 160.055C187.347 160.512 184.468 164.763 182.511 166.72C180.907 168.324 167.867 176.769 163.504 179.552L179.311 179.56Z" fill="#B2B2B2" stroke="#263238" stroke-linecap="round" stroke-linejoin="round"/>
<path d="M202.361 162.453L198.455 163.833" stroke="#263238" stroke-linecap="round" stroke-linejoin="round"/>
<path d="M267.018 179.56H135.466" stroke="#263238" stroke-linecap="round" stroke-linejoin="round"/>
<path d="M266.705 238.01C266.304 234.954 264.596 222.98 262.078 217.478C260.868 214.801 259.103 212.412 256.901 210.468C254.698 208.524 252.108 207.07 249.302 206.202C244.69 204.807 238.675 203.628 235.668 204.053C235.668 204.053 225.683 207.493 221.392 208.456C217.101 209.418 212.65 212.426 210.822 215.008C209.218 217.302 200.813 234.296 198.992 238.01H266.705Z" fill="white" stroke="#263238" stroke-linecap="round" stroke-linejoin="round"/>
<path d="M266.705 238.01C266.304 234.954 264.596 222.98 262.078 217.478C260.868 214.801 259.103 212.412 256.901 210.468C254.698 208.524 252.108 207.07 249.302 206.202C244.69 204.807 238.675 203.628 235.668 204.053C235.668 204.053 228.827 206.411 224.031 207.766C222.531 210.108 219.163 215.305 216.011 219.732C212.001 225.346 210.397 233.462 212.57 238.01H266.705Z" fill="#8B5CF6" stroke="#263238" stroke-linecap="round" stroke-linejoin="round"/>
<path d="M229.228 197.829C230.209 201.576 230.572 205.458 230.302 209.322C229.869 215.874 226.437 220.061 227.728 223.389C229.019 226.717 234.144 228.001 238.675 224.464C243.207 220.927 244.041 212.225 244.153 208.36C244.265 204.494 246.086 192.48 246.086 192.48C246.086 192.48 241.274 198.166 235.66 198.383C230.046 198.599 229.228 197.829 229.228 197.829Z" fill="white" stroke="#263238" stroke-linecap="round" stroke-linejoin="round"/>
<path d="M230.407 167.128C230.407 167.128 223.189 168.412 219.892 174.747C216.684 180.818 218.208 191.028 221.376 197.075C225.386 204.71 225.145 207.325 225.186 214.069C225.224 214.525 225.168 214.984 225.022 215.417C224.876 215.85 224.642 216.249 224.335 216.588C222.683 218.192 222.467 215.786 222.034 217.149C221.601 218.513 226.044 221.528 230.623 217.542C233.591 214.952 234.272 207.71 232.877 203.515C231.481 199.321 224.504 190.635 226.012 183.874C227.519 177.113 232.772 171.531 233.23 168.949C233.687 166.366 230.407 167.128 230.407 167.128Z" fill="#263238"/>
<mask id="mask1_6_14044" style="mask-type:luminance" maskUnits="userSpaceOnUse" x="218" y="167" width="16" height="53">
<path d="M230.407 167.128C230.407 167.128 223.189 168.412 219.892 174.747C216.684 180.818 218.208 191.028 221.376 197.075C225.386 204.71 225.145 207.325 225.186 214.069C225.224 214.525 225.168 214.984 225.022 215.417C224.876 215.85 224.642 216.249 224.335 216.588C222.683 218.192 222.467 215.786 222.034 217.149C221.601 218.513 226.044 221.528 230.623 217.542C233.591 214.952 234.272 207.71 232.877 203.515C231.481 199.321 224.504 190.635 226.012 183.874C227.519 177.113 232.772 171.531 233.23 168.949C233.687 166.366 230.407 167.128 230.407 167.128Z" fill="white"/>
</mask>
<g mask="url(#mask1_6_14044)">
<path d="M230.711 171.058C230.711 171.058 218.232 178.541 220.181 190.122C222.13 201.703 234.617 205.087 233.438 217.021" stroke="#636363" stroke-linecap="round" stroke-linejoin="round"/>
</g>
<path d="M230.407 167.128C230.407 167.128 223.189 168.412 219.892 174.747C216.684 180.818 218.208 191.028 221.376 197.075C225.386 204.71 225.145 207.325 225.186 214.069C225.224 214.525 225.168 214.984 225.022 215.417C224.876 215.85 224.642 216.249 224.335 216.588C222.683 218.192 222.467 215.786 222.034 217.149C221.601 218.513 226.044 221.528 230.623 217.542C233.591 214.952 234.272 207.71 232.877 203.515C231.481 199.321 224.504 190.635 226.012 183.874C227.519 177.113 232.772 171.531 233.23 168.949C233.687 166.366 230.407 167.128 230.407 167.128Z" stroke="#263238" stroke-linecap="round" stroke-linejoin="round"/>
<path d="M250.392 238.009H266.705V237.857V237.736V237.56V237.392V237.319V237.159V237.111V236.902V236.686V236.63V236.437V236.349C266.709 236.277 266.709 236.205 266.705 236.132V236.076C266.705 235.996 266.705 235.916 266.705 235.836V235.78C266.705 235.699 266.705 235.627 266.705 235.555V235.451C266.705 235.379 266.705 235.306 266.705 235.226V235.146L266.657 234.857L266.609 234.569V234.504L266.561 234.192C266.561 234.071 266.521 233.951 266.505 233.831C266.448 233.462 266.384 233.077 266.32 232.684C266.32 232.564 266.32 232.443 266.256 232.323V232.283C266.256 232.163 266.216 232.042 266.192 231.922V231.866C266.192 231.753 266.152 231.641 266.128 231.521V231.433C266.128 231.328 266.128 231.224 266.072 231.12V230.992L266.023 230.711V230.567L265.975 230.294V230.158C265.975 230.061 265.935 229.965 265.919 229.869V229.732C265.919 229.636 265.879 229.54 265.863 229.444V229.299C265.863 229.203 265.863 229.115 265.807 229.019V228.874C265.807 228.778 265.807 228.682 265.751 228.586V228.433C265.751 228.345 265.711 228.249 265.695 228.153V228C265.695 227.904 265.654 227.816 265.63 227.719V227.567C265.63 227.471 265.63 227.375 265.566 227.278C265.57 227.23 265.57 227.182 265.566 227.134C265.566 227.038 265.526 226.933 265.51 226.837V226.693L264.66 226.164V226.043C264.66 225.931 264.612 225.811 264.58 225.69V225.61L264.484 225.193C264.419 224.904 264.347 224.616 264.275 224.327V224.263C264.275 224.143 264.219 224.022 264.195 223.902V223.774L264.123 223.485C264.107 223.435 264.093 223.384 264.083 223.333L264.01 223.06C264.01 223.012 264.01 222.956 263.97 222.907C263.93 222.859 263.93 222.739 263.906 222.651L263.858 222.482C263.858 222.402 263.818 222.322 263.794 222.242L263.746 222.073L263.682 221.841L263.633 221.664C263.633 221.592 263.593 221.52 263.569 221.44L263.521 221.271C263.496 221.2 263.475 221.128 263.457 221.055C263.457 220.991 263.417 220.935 263.401 220.878C263.385 220.822 263.401 220.734 263.337 220.67C263.273 220.606 263.337 220.558 263.281 220.493C263.263 220.425 263.241 220.359 263.216 220.293C263.201 220.236 263.183 220.179 263.16 220.125C263.143 220.054 263.121 219.984 263.096 219.916C263.096 219.868 263.096 219.812 263.04 219.756C262.984 219.699 263 219.619 262.976 219.555C262.952 219.491 262.936 219.451 262.92 219.395L262.847 219.202C262.832 219.15 262.814 219.099 262.791 219.05C262.774 218.985 262.752 218.92 262.727 218.857C262.705 218.811 262.686 218.762 262.671 218.713L262.599 218.521C262.599 218.472 262.599 218.424 262.543 218.384L262.463 218.192L262.414 218.063C262.414 217.991 262.358 217.927 262.326 217.863C262.309 217.827 262.296 217.789 262.286 217.751L262.15 217.462C260.994 214.931 259.343 212.658 257.295 210.775C255.247 208.892 252.843 207.438 250.224 206.499C249.51 208.993 247.714 215.97 248.147 221.737C248.532 227.222 249.799 234.697 250.392 238.009Z" fill="white" stroke="#263238" stroke-linecap="round" stroke-linejoin="round"/>
<path d="M231.377 167.553C231.377 167.553 227.295 170.665 226.012 174.106C224.728 177.546 223.646 186.232 223.862 189.673C224.079 193.113 228.474 199.12 230.278 200.62C232.083 202.12 239.902 200.403 243.591 196.971C246.142 194.565 248.315 186.344 246.599 178.292C244.883 170.24 236.638 165.621 231.377 167.553Z" fill="white" stroke="#263238" stroke-linecap="round" stroke-linejoin="round"/>
<path d="M234.922 183.233C234.922 183.233 237.28 180.762 241.25 182.799" stroke="#263238" stroke-linecap="round" stroke-linejoin="round"/>
<path d="M229.123 181.837C228.94 181.073 228.554 180.372 228.007 179.807C227.459 179.243 226.77 178.836 226.012 178.629" stroke="#263238" stroke-linecap="round" stroke-linejoin="round"/>
<path d="M231.056 180.763C231.056 180.763 230.84 182.8 230.086 183.554C229.332 184.308 227.728 185.053 228.37 186.561C229.011 188.069 230.944 188.382 231.802 187.524" stroke="#263238" stroke-linecap="round" stroke-linejoin="round"/>
<path d="M226.22 176.576C226.22 176.576 228.049 174.323 231.032 176.576" stroke="#263238" stroke-linecap="round" stroke-linejoin="round"/>
<path d="M234.385 177.651C234.385 177.651 237.921 175.501 240.712 179.471" stroke="#263238" stroke-linecap="round" stroke-linejoin="round"/>
<path d="M228.153 189.994C228.153 189.994 229.661 192.031 233.767 191.493C237.873 190.956 238.812 189.24 238.812 189.24" stroke="#263238" stroke-linecap="round" stroke-linejoin="round"/>
<path d="M237.921 183.177C237.921 183.378 237.862 183.575 237.75 183.743C237.638 183.91 237.479 184.041 237.293 184.118C237.106 184.195 236.902 184.215 236.704 184.176C236.507 184.136 236.325 184.039 236.183 183.897C236.04 183.755 235.943 183.573 235.904 183.375C235.865 183.178 235.885 182.973 235.962 182.787C236.039 182.601 236.169 182.442 236.337 182.33C236.504 182.218 236.701 182.158 236.903 182.158C237.173 182.158 237.432 182.266 237.623 182.457C237.814 182.648 237.921 182.907 237.921 183.177Z" fill="#263238"/>
<path d="M228.474 180.811C228.474 181.012 228.414 181.209 228.302 181.376C228.19 181.544 228.031 181.674 227.845 181.752C227.659 181.829 227.454 181.849 227.256 181.81C227.059 181.77 226.877 181.673 226.735 181.531C226.593 181.388 226.496 181.207 226.456 181.009C226.417 180.812 226.437 180.607 226.514 180.421C226.591 180.235 226.722 180.076 226.889 179.964C227.057 179.852 227.254 179.792 227.455 179.792C227.725 179.792 227.984 179.899 228.175 180.09C228.366 180.281 228.474 180.54 228.474 180.811Z" fill="#263238"/>
<path d="M230.519 191.389C230.519 191.389 232.235 194.934 235.243 194.597C238.25 194.26 238.034 190.074 238.034 190.074C235.767 191.399 233.1 191.866 230.519 191.389Z" fill="#263238" stroke="#263238" stroke-linecap="round" stroke-linejoin="round"/>
<path d="M240.279 158.331H240.039C236.189 158.772 231.136 159.582 228.049 162.06C224.287 165.059 225.579 165.813 229.011 167.53C232.444 169.246 242.645 174.94 243.616 183.096C244.586 191.253 241.25 204.029 239.646 209.827C238.042 215.625 240.175 219.595 243.295 222.386C243.998 223.039 244.833 223.533 245.743 223.835C246.654 224.136 247.618 224.239 248.572 224.135C250.32 223.958 252.518 223.493 253.905 222.354C254.058 222.234 255.814 220.381 255.509 220.133C253.969 218.825 252.117 220.702 251.178 218.906C249.262 215.216 252.237 210.797 254.25 207.766C255.894 205.288 258.629 203.756 260.297 201.35C261.92 198.754 262.904 195.81 263.168 192.76C263.93 186.232 262.703 179.311 260.409 173.192C257.434 165.252 251.275 158.194 242.204 158.218C241.578 158.226 240.921 158.258 240.279 158.331Z" fill="#263238"/>
<mask id="mask2_6_14044" style="mask-type:luminance" maskUnits="userSpaceOnUse" x="225" y="158" width="39" height="67">
<path d="M240.279 158.331H240.039C236.189 158.772 231.136 159.582 228.049 162.06C224.287 165.059 225.579 165.813 229.011 167.53C232.444 169.246 242.645 174.94 243.616 183.096C244.586 191.253 241.25 204.029 239.646 209.827C238.042 215.625 240.175 219.595 243.295 222.386C243.998 223.039 244.833 223.533 245.743 223.835C246.654 224.136 247.618 224.239 248.572 224.135C250.32 223.958 252.518 223.493 253.905 222.354C254.058 222.234 255.814 220.381 255.509 220.133C253.969 218.825 252.117 220.702 251.178 218.906C249.262 215.216 252.237 210.797 254.25 207.766C255.894 205.288 258.629 203.756 260.297 201.35C261.92 198.754 262.904 195.81 263.168 192.76C263.93 186.232 262.703 179.311 260.409 173.192C257.434 165.252 251.275 158.194 242.204 158.218C241.578 158.226 240.921 158.258 240.279 158.331Z" fill="white"/>
</mask>
<g mask="url(#mask2_6_14044)">
<path d="M223.285 161.699C223.285 161.699 234.513 162.91 241.667 172.622C248.821 182.335 250.858 188.927 250.681 197.942C250.505 206.956 257.795 211.126 263.168 208.52" stroke="#636363" stroke-linecap="round" stroke-linejoin="round"/>
<path d="M233.166 158.924C233.166 158.924 247.738 161.699 252.414 176.264C257.089 190.828 255.196 199.698 261.452 200.893" stroke="#636363" stroke-linecap="round" stroke-linejoin="round"/>
<path d="M240.448 186.152C240.448 186.152 245.829 199.161 244.458 211.471C243.086 223.782 248.468 226.044 257.121 223.782" stroke="#636363" stroke-linecap="round" stroke-linejoin="round"/>
</g>
<path d="M240.279 158.331H240.039C236.189 158.772 231.136 159.582 228.049 162.06C224.287 165.059 225.579 165.813 229.011 167.53C232.444 169.246 242.645 174.94 243.616 183.096C244.586 191.253 241.25 204.029 239.646 209.827C238.042 215.625 240.175 219.595 243.295 222.386C243.998 223.039 244.833 223.533 245.743 223.835C246.654 224.136 247.618 224.239 248.572 224.135C250.32 223.958 252.518 223.493 253.905 222.354C254.058 222.234 255.814 220.381 255.509 220.133C253.969 218.825 252.117 220.702 251.178 218.906C249.262 215.216 252.237 210.797 254.25 207.766C255.894 205.288 258.629 203.756 260.297 201.35C261.92 198.754 262.904 195.81 263.168 192.76C263.93 186.232 262.703 179.311 260.409 173.192C257.434 165.252 251.275 158.194 242.204 158.218C241.578 158.226 240.921 158.258 240.279 158.331Z" stroke="#263238" stroke-linecap="round" stroke-linejoin="round"/>
<path d="M188.005 218.336C188.87 219.121 189.897 219.706 191.012 220.053C191.012 220.053 192.729 225.314 192.616 229.5C192.607 232.347 192.805 235.191 193.21 238.01H206.363C203.952 233.854 201.902 229.499 200.235 224.993C198.198 218.874 199.056 215.433 197.661 211.463C196.265 207.493 195.616 205.561 193.258 202.449C190.9 199.337 188.751 200.299 188.751 201.374C188.751 202.449 190.034 202.874 191.004 204.382C191.667 205.498 192.205 206.684 192.608 207.918C192.608 207.918 188.093 209.964 186.81 212.217C185.527 214.471 186.609 217.045 188.005 218.336Z" fill="white" stroke="#263238" stroke-linecap="round" stroke-linejoin="round"/>
<path d="M184.893 210.5C184.893 210.5 183.177 212.104 183.177 213.708C183.177 215.312 184.46 217.574 185.11 217.574C185.759 217.574 186.072 216.395 185.751 215.216C185.43 214.037 184.893 210.5 184.893 210.5Z" fill="white" stroke="#263238" stroke-linecap="round" stroke-linejoin="round"/>
<path d="M186.93 208.239C186.93 208.239 184.893 209.531 184.356 211.143C184.177 211.843 184.162 212.576 184.311 213.283C184.459 213.991 184.768 214.655 185.214 215.225C185.855 216.187 187.788 216.404 188.326 215.866C188.863 215.329 188.43 214.15 188.326 213.46C188.221 212.771 187.147 210.669 187.251 209.707C187.314 209.207 187.352 208.703 187.363 208.199L186.93 208.239Z" fill="white" stroke="#263238" stroke-linecap="round" stroke-linejoin="round"/>
<path d="M192.624 207.918C192.624 207.918 189.825 206.202 187.684 207.381C185.543 208.56 185.639 210.926 186.393 212.642C187.147 214.358 189.08 215.329 189.938 214.575C190.796 213.821 189.825 212.642 190.042 211.038C190.258 209.434 192.624 207.918 192.624 207.918Z" fill="white" stroke="#263238" stroke-linecap="round" stroke-linejoin="round"/>
<path d="M195.415 210.926C195.415 210.926 193.154 207.918 191.117 208.135C189.08 208.351 185.751 212.145 186.393 213.075C187.034 214.005 190.876 212.53 190.876 212.53C190.876 212.53 189.801 216.075 192.48 216.82" fill="white"/>
<path d="M195.415 210.926C195.415 210.926 193.154 207.918 191.117 208.135C189.08 208.351 185.751 212.145 186.393 213.075C187.034 214.005 190.876 212.53 190.876 212.53C190.876 212.53 189.801 216.075 192.48 216.82" stroke="#263238" stroke-linecap="round" stroke-linejoin="round"/>
<path d="M267.018 238.009H135.466" stroke="#263238" stroke-linecap="round" stroke-linejoin="round"/>
<path d="M267.018 301.439H135.466" stroke="#263238" stroke-linecap="round" stroke-linejoin="round"/>
<path d="M206.218 301.183C206.218 301.183 207.389 290.805 203.363 288.078C199.337 285.351 181.837 272.776 175.093 271.236C168.348 269.696 164.201 268.253 161.459 269.809C158.716 271.364 147.472 281.502 142.804 284.71C138.136 287.918 135.803 291.326 135.153 293.788C134.75 295.969 134.618 298.192 134.76 300.405V301.439C134.76 301.439 206.483 300.918 206.218 301.183Z" fill="#263238" stroke="#263238" stroke-linecap="round" stroke-linejoin="round"/>
<path d="M161.475 269.793C160.4 270.489 159.369 271.249 158.387 272.07C158.416 274.737 158.961 277.373 159.991 279.834C163.343 287.982 170.89 292.602 176.833 290.155C181.902 288.07 184.203 281.558 182.736 274.653C180.336 273.198 177.766 272.045 175.085 271.22C168.348 269.664 164.201 268.237 161.475 269.793Z" fill="white" stroke="#263238" stroke-linecap="round" stroke-linejoin="round"/>
<path d="M163.031 257.602C163.031 257.602 162.774 265.518 162.124 268.886C161.475 272.255 161.475 276.802 164.723 282.52C167.971 288.239 175.871 287.966 178.357 285.728C180.843 283.491 180.298 277.299 180.298 274.966C180.298 272.632 181.669 267.146 181.669 267.146C181.669 267.146 174.074 264.203 170.184 261.612C166.295 259.022 164.33 256.824 163.031 257.602Z" fill="white" stroke="#263238" stroke-linecap="round" stroke-linejoin="round"/>
<path d="M183.658 236.47C183.658 236.47 186.77 241.787 187.548 243.343C187.853 244.029 187.977 244.783 187.909 245.531C187.84 246.28 187.58 246.998 187.155 247.617C186.449 248.604 192.769 251.683 192.656 253.303C192.544 254.924 191.975 255.814 190.7 257.65C189.304 259.655 189.825 263.016 189.208 265.374C188.687 267.379 188.045 267.876 186 268.63C182.102 270.057 174.844 269.536 171.211 267.723C167.578 265.911 166.287 262.663 164.987 260.329C163.688 257.995 163.56 253.713 164.338 249.173C165.116 244.634 171.211 238.539 175.101 236.854C178.99 235.17 183.658 236.47 183.658 236.47Z" fill="white" stroke="#263238" stroke-linecap="round" stroke-linejoin="round"/>
<path d="M187.411 260.458C186.346 260.74 185.235 260.806 184.143 260.65C183.052 260.495 182.003 260.121 181.06 259.551C181.06 259.551 181.06 263.441 183.008 263.561C184.957 263.682 187.411 260.458 187.411 260.458Z" fill="#263238"/>
<path d="M183.658 249.959C183.858 250.833 183.658 251.627 183.193 251.732C182.728 251.836 182.214 251.21 182.014 250.336C181.813 249.462 182.014 248.668 182.479 248.564C182.944 248.459 183.433 249.085 183.658 249.959Z" fill="#263238"/>
<path d="M178.597 247.361C179.045 246.689 179.668 246.152 180.399 245.808C181.13 245.465 181.941 245.328 182.744 245.412" stroke="#263238" stroke-linecap="round" stroke-linejoin="round"/>
<path d="M191.044 256.431C191.044 256.431 189.039 258.597 187.796 258.757C186.553 258.917 185.166 257.209 185.783 256.126" stroke="#263238" stroke-linecap="round" stroke-linejoin="round"/>
<path d="M168.091 257.602C168.709 257.402 171.724 257.867 171.299 256.175C170.874 254.483 170.008 254.234 170.65 252.967C171.291 251.7 177.916 248.556 176.488 245.965C175.539 244.291 174.409 242.726 173.12 241.298C173.12 241.298 184.011 239.22 186.345 235.98C188.679 232.74 186.088 227.68 183.361 227.68C180.634 227.68 181.934 228.586 174.676 230.888C167.418 233.189 163.776 230.374 158.331 236.077C152.885 241.779 154.569 252.919 156.647 256.439C158.724 259.96 162.87 262.791 164.947 262.013C167.025 261.235 166.535 258.124 168.091 257.602Z" fill="#263238" stroke="#263238" stroke-linecap="round" stroke-linejoin="round"/>
<path d="M170.024 258.773C170.024 258.773 165.212 252.678 162.004 254.619C158.796 256.56 163.56 262.406 165.637 263.056C167.714 263.705 170.176 262.142 170.176 262.142" fill="white"/>
<path d="M170.024 258.773C170.024 258.773 165.212 252.678 162.004 254.619C158.796 256.56 163.56 262.406 165.637 263.056C167.714 263.705 170.176 262.142 170.176 262.142" stroke="#263238" stroke-linecap="round" stroke-linejoin="round"/>
<path d="M266.152 338.388H134.471" stroke="#263238" stroke-linecap="round" stroke-linejoin="round"/>
<path d="M197.083 334.939C197.083 334.939 196.963 327.801 198.03 326.726C199.096 325.652 225.394 311.264 232.772 311.376C240.151 311.488 250.232 321.537 255.613 324.208C264.179 328.491 264.179 330.865 264.893 333.247C265.606 335.629 266.2 338.363 266.2 338.363H197.083V334.939Z" fill="white"/>
<mask id="mask3_6_14044" style="mask-type:luminance" maskUnits="userSpaceOnUse" x="197" y="311" width="70" height="28">
<path d="M197.083 334.939C197.083 334.939 196.963 327.801 198.03 326.726C199.096 325.652 225.394 311.264 232.772 311.376C240.151 311.488 250.232 321.537 255.613 324.208C264.179 328.491 264.179 330.865 264.893 333.247C265.606 335.629 266.2 338.363 266.2 338.363H197.083V334.939Z" fill="white"/>
</mask>
<g mask="url(#mask3_6_14044)">
<path d="M265.863 336.928C263.874 336.792 261.733 336.671 259.447 336.575L260.361 330.849L264.131 331.009C263.653 330 262.97 329.101 262.126 328.371L260.762 328.314L260.915 327.384C260.73 327.248 260.538 327.103 260.329 326.967L260.121 328.29L258.894 328.242L259.214 326.237C258.525 325.812 257.739 325.363 256.849 324.89L256.752 325.459C254.13 325.315 251.491 325.211 248.861 325.131L249.302 321.121L250.906 321.161C249.358 320.038 247.698 318.755 245.941 317.536L245.797 318.514C242.902 318.474 240.015 318.458 237.176 318.45L237.713 312.595L237.095 312.339L236.534 318.45H235.235L235.724 311.857C234.905 311.607 234.06 311.448 233.206 311.384L232.676 318.458C231.144 318.458 229.629 318.458 228.129 318.458L228.61 312.042L227.953 312.242L227.487 318.434H225.33L225.498 313.052C224.696 313.349 223.806 313.686 222.924 314.039L222.788 318.466C220.558 318.466 218.401 318.538 216.332 318.586L216.412 316.886L215.762 317.191L215.69 318.602H214.03V317.969C211.688 319.1 209.402 320.246 207.317 321.337L211.327 321.217L211.167 325.307L206.916 325.612L207.06 321.602L206.411 321.939L206.282 325.628L205.16 325.684L205.328 322.476C204.382 322.981 203.5 323.454 202.698 323.895L202.601 325.796L199.008 326.013C198.679 326.198 198.365 326.41 198.07 326.646L198.014 326.719L202.569 326.438L202.465 328.403L197.436 328.595C197.316 329.397 197.244 330.279 197.196 331.154C198.655 331.097 200.404 331.025 202.329 330.961L202.048 336.262L197.124 336.359V336.992L202.016 336.896L201.944 338.307H204.494L204.566 336.848H205.89L205.833 338.323H206.475L206.523 336.832L210.83 336.768L210.766 338.323H213.316L213.38 336.719H214.904L214.832 338.323H215.473L215.546 336.719L222.274 336.663L222.226 338.331H224.769L224.825 336.655H226.164L226.044 338.339H226.677L226.806 336.655H231.345L231.217 338.348H233.767L233.895 336.663H234.898L234.745 338.339H235.387L235.539 336.663C238.098 336.663 240.656 336.663 243.183 336.727L242.95 338.331H245.516L245.749 336.727H246.984L246.816 338.275H247.457L247.626 336.735C250.128 336.784 252.574 336.848 254.94 336.928L254.723 338.275H257.298L257.498 337.016L258.757 337.064L258.565 338.275H259.206L259.391 337.096C261.749 337.201 263.97 337.321 266.031 337.457C265.975 337.385 265.919 337.169 265.863 336.928ZM205.873 336.27H204.558L204.839 330.929L206.058 330.889L205.873 336.27ZM206.146 328.363L204.975 328.403L205.088 326.374L206.218 326.318L206.146 328.363ZM210.814 336.198L206.507 336.262L206.692 330.889L211.03 330.769L210.814 336.198ZM211.127 328.218L206.78 328.339L206.852 326.285C208.215 326.213 209.675 326.149 211.215 326.085L211.127 328.218ZM214.896 336.15H213.364L213.581 330.68H215.185L214.896 336.15ZM215.273 328.13L213.669 328.17L213.757 325.997L215.361 325.933L215.273 328.13ZM215.401 325.299L213.797 325.355L213.958 321.305H215.602L215.401 325.299ZM222.258 336.102L215.538 336.158L215.786 330.664L222.427 330.536L222.258 336.102ZM222.507 327.994C220.229 327.994 218.024 328.066 215.906 328.114L216.011 325.908C218.096 325.836 220.293 325.772 222.579 325.724L222.507 327.994ZM222.595 325.082C220.317 325.139 218.128 325.203 216.043 325.275L216.227 321.265C218.312 321.217 220.486 321.177 222.723 321.145L222.595 325.082ZM225.266 321.072H227.319L227.022 324.994H225.146L225.266 321.072ZM226.164 336.038H224.801L224.977 330.424H226.581L226.164 336.038ZM225.025 327.905L225.097 325.62H226.942L226.774 327.922L225.025 327.905ZM231.377 336.038H226.838L227.255 330.424H231.802L231.377 336.038ZM231.987 327.857H227.447L227.616 325.556C229.107 325.556 230.623 325.54 232.163 325.507L231.987 327.857ZM232.211 324.906L227.664 324.946L227.953 321.032H232.5L232.211 324.906ZM235.058 320.992H236.317L235.965 324.898H234.762L235.058 320.992ZM234.938 336.038H233.927L234.352 330.384H235.459L234.938 336.038ZM234.545 327.833L234.713 325.524H235.9L235.692 327.833H234.545ZM243.255 336.11C240.72 336.11 238.154 336.054 235.58 336.046L236.101 330.384C238.731 330.384 241.394 330.384 244.081 330.424L243.255 336.11ZM244.45 327.881C241.723 327.881 239.004 327.833 236.333 327.833L236.542 325.524C239.245 325.524 242.004 325.564 244.778 325.62L244.45 327.881ZM244.875 324.986C242.084 324.93 239.317 324.898 236.598 324.89L236.959 320.984C239.758 320.984 242.573 320.984 245.444 321.048L244.875 324.986ZM248.019 321.088H248.7L248.259 325.098H247.457L248.019 321.088ZM247.345 325.684H248.195L247.946 327.905H247.024L247.345 325.684ZM247.016 336.206H245.797L246.599 330.512H247.61L247.016 336.206ZM255.036 336.407C252.63 336.326 250.224 336.262 247.698 336.214L248.323 330.512C250.874 330.552 253.424 330.616 255.966 330.688L255.036 336.407ZM256.375 328.154C253.793 328.074 251.195 328.018 248.604 327.97L248.845 325.764C251.467 325.844 254.09 325.949 256.712 326.093L256.375 328.154ZM258.854 336.551L257.602 336.495L258.533 330.777L259.768 330.817L258.854 336.551Z" fill="#ADADAD"/>
</g>
<path d="M197.083 334.939C197.083 334.939 196.963 327.801 198.03 326.726C199.096 325.652 225.394 311.264 232.772 311.376C240.151 311.488 250.232 321.537 255.613 324.208C264.179 328.491 264.179 330.865 264.893 333.247C265.606 335.629 266.2 338.363 266.2 338.363H197.083V334.939Z" stroke="#263238" stroke-linecap="round" stroke-linejoin="round"/>
<path d="M228.843 308.521C228.843 308.521 225.274 308.762 224.327 310.55C223.381 312.339 223.846 313.406 221.921 318.755C219.997 324.104 218.946 325.66 220.021 325.66C221.095 325.66 224.031 322.564 225.129 322.091C226.228 321.618 228.706 325.772 228.706 325.772C228.706 325.772 233.462 323.278 235.01 323.158C236.558 323.038 239.886 329.462 240.48 328.395C241.073 327.328 242.621 323.398 244.289 319.83C245.957 316.261 246.31 313.285 244.883 310.903C243.455 308.521 230.038 307.808 228.843 308.521Z" fill="#263238" stroke="#263238" stroke-linecap="round" stroke-linejoin="round"/>
<path d="M226.701 307.334C226.153 311 226.112 314.724 226.581 318.402C227.383 323.751 228.61 326.847 229.556 326.133C230.503 325.419 236.341 321.85 239.317 318.161C242.292 314.472 242.765 313.999 243.599 311.978C244.434 309.957 245.38 307.695 245.38 307.695C245.38 307.695 234.32 311.857 226.701 307.334Z" fill="white" stroke="#263238" stroke-linecap="round" stroke-linejoin="round"/>
<path d="M226.822 287.701C226.822 287.701 224.68 284.373 223.493 288.303C222.306 292.232 225.153 294.366 225.514 294.125C225.875 293.885 226.822 287.701 226.822 287.701Z" fill="white" stroke="#263238" stroke-linecap="round" stroke-linejoin="round"/>
<path d="M227.896 279.376C227.896 279.376 223.967 296.387 223.132 301.271C222.298 306.155 227.656 310.663 233.607 311.497C239.557 312.331 245.26 309.476 246.807 306.5C248.355 303.525 253.224 284.493 253.945 283.186C254.667 281.879 257.153 276.168 255.261 274.26C253.368 272.351 250.264 273.787 250.264 273.787C250.264 273.787 248.115 268.309 244.434 268.173C240.752 268.036 240.263 269.712 240.263 269.712C240.263 269.712 237.055 265.791 234.08 266.625C231.104 267.459 231.104 269.36 231.104 269.36C231.104 269.36 225.635 268.052 223.614 271.974C221.593 275.896 227.183 277.091 227.183 277.091C227.183 277.091 225.988 278.783 227.896 279.376Z" fill="white" stroke="#263238" stroke-linecap="round" stroke-linejoin="round"/>
<path d="M249.663 293.299C250.023 293.179 252.405 289.37 254.659 290.893C256.913 292.417 254.306 298.272 252.405 299.218C252.081 299.393 251.723 299.499 251.356 299.527C250.988 299.556 250.618 299.507 250.271 299.383C249.923 299.26 249.605 299.066 249.337 298.812C249.07 298.558 248.858 298.251 248.716 297.911" fill="white"/>
<path d="M249.663 293.299C250.023 293.179 252.405 289.37 254.659 290.893C256.913 292.417 254.306 298.272 252.405 299.218C252.081 299.393 251.723 299.499 251.356 299.527C250.988 299.556 250.618 299.507 250.271 299.383C249.923 299.26 249.605 299.066 249.337 298.812C249.07 298.558 248.858 298.251 248.716 297.911" stroke="#263238" stroke-linecap="round" stroke-linejoin="round"/>
<path d="M255.261 274.284C253.352 272.383 250.264 273.81 250.264 273.81C250.264 273.81 248.115 268.333 244.434 268.196C240.752 268.06 240.263 269.736 240.263 269.736C240.263 269.736 237.055 265.815 234.08 266.649C231.104 267.483 231.104 269.383 231.104 269.383C231.104 269.383 225.635 268.076 223.614 271.998C221.593 275.92 227.183 277.115 227.183 277.115C227.183 277.115 225.988 278.783 227.896 279.376C228.61 278.663 230.038 275.455 237.296 275.366C244.554 275.278 250.376 280.483 250.376 280.483C250.376 280.483 247.762 283.571 248.596 284.878C249.43 286.185 250.376 286.073 250.264 287.14C250.152 288.206 247.858 297.967 246.928 299.515C246.415 300.266 245.684 300.841 244.833 301.161C243.981 301.481 243.052 301.53 242.172 301.303C240.504 300.822 239.549 299.635 236.558 298.095C233.566 296.555 231.08 295.954 228.939 296.788C226.798 297.622 226.677 298.336 225.49 298.689C224.464 299.001 224.143 298.328 223.846 297.534C223.525 299.081 223.269 300.405 223.108 301.311C222.306 306.187 227.632 310.702 233.582 311.537C239.533 312.371 245.236 309.516 246.783 306.54C248.331 303.565 253.199 284.533 253.921 283.226C254.643 281.919 257.161 276.168 255.261 274.284Z" fill="#8B5CF6" stroke="#263238" stroke-linecap="round" stroke-linejoin="round"/>
<path d="M229.444 299.009C229.444 299.009 233.839 301.744 236.814 300.076C236.814 300.076 233.839 303.645 232.299 303.645C230.759 303.645 229.444 299.009 229.444 299.009Z" fill="#263238" stroke="#263238" stroke-linecap="round" stroke-linejoin="round"/>
<path d="M232.772 288.952C232.772 289.745 232.537 290.521 232.097 291.18C231.656 291.84 231.03 292.354 230.297 292.657C229.564 292.961 228.758 293.04 227.98 292.885C227.202 292.731 226.488 292.349 225.927 291.788C225.366 291.227 224.984 290.513 224.829 289.735C224.675 288.957 224.754 288.151 225.058 287.418C225.361 286.685 225.875 286.059 226.535 285.618C227.194 285.178 227.969 284.942 228.762 284.942C229.826 284.942 230.846 285.365 231.598 286.117C232.35 286.869 232.772 287.889 232.772 288.952Z" stroke="#263238" stroke-linecap="round" stroke-linejoin="round"/>
<path d="M244.313 290.973C244.313 291.766 244.078 292.542 243.637 293.201C243.197 293.861 242.571 294.375 241.838 294.678C241.105 294.982 240.299 295.061 239.521 294.906C238.743 294.752 238.029 294.37 237.468 293.809C236.907 293.248 236.525 292.534 236.37 291.756C236.216 290.978 236.295 290.172 236.598 289.439C236.902 288.706 237.416 288.08 238.075 287.639C238.735 287.199 239.51 286.963 240.303 286.963C241.367 286.963 242.387 287.386 243.139 288.138C243.891 288.89 244.313 289.91 244.313 290.973Z" stroke="#263238" stroke-linecap="round" stroke-linejoin="round"/>
<path d="M232.893 288.535C232.893 288.535 234.553 287.733 236.582 289.337" stroke="#263238" stroke-linecap="round" stroke-linejoin="round"/>
<path d="M244.313 290.974L252.045 291.27" stroke="#263238" stroke-linecap="round" stroke-linejoin="round"/>
<path d="M233.486 289.017C232.506 290.869 231.633 292.775 230.872 294.727C230.631 295.793 231.938 296.387 233.606 296.387C235.275 296.387 236.012 295.673 236.012 294.959" stroke="#263238" stroke-linecap="round" stroke-linejoin="round"/>
<path d="M233.125 284.493C232.963 284.492 232.803 284.45 232.66 284.373C232.037 283.965 231.314 283.734 230.569 283.705C229.824 283.677 229.086 283.853 228.434 284.213C228.328 284.283 228.21 284.332 228.086 284.357C227.961 284.382 227.834 284.382 227.709 284.358C227.458 284.308 227.237 284.161 227.094 283.948C226.952 283.735 226.9 283.475 226.949 283.224C226.999 282.972 227.146 282.751 227.359 282.609C228.306 282.049 229.389 281.76 230.489 281.772C231.589 281.785 232.665 282.099 233.598 282.681C233.784 282.784 233.93 282.946 234.013 283.141C234.096 283.337 234.112 283.554 234.057 283.759C234.003 283.964 233.882 284.145 233.713 284.274C233.544 284.403 233.338 284.471 233.125 284.469V284.493Z" fill="#8B5CF6"/>
<path d="M244.786 288.423C244.63 288.426 244.476 288.391 244.336 288.321C244.196 288.252 244.076 288.149 243.984 288.022C243.423 287.154 242.606 286.482 241.647 286.098C240.687 285.715 239.632 285.638 238.627 285.881C238.389 285.946 238.134 285.916 237.917 285.797C237.701 285.679 237.538 285.481 237.464 285.245C237.391 285.009 237.411 284.754 237.522 284.533C237.633 284.312 237.825 284.142 238.058 284.06C239.447 283.694 240.916 283.773 242.258 284.285C243.6 284.797 244.748 285.717 245.54 286.915C245.643 287.06 245.704 287.23 245.715 287.407C245.727 287.584 245.689 287.76 245.606 287.917C245.522 288.074 245.397 288.204 245.244 288.293C245.091 288.383 244.916 288.427 244.738 288.423H244.786Z" fill="#8B5CF6"/>
<path d="M229.26 290.556C229.685 290.556 230.03 289.917 230.03 289.129C230.03 288.34 229.685 287.701 229.26 287.701C228.834 287.701 228.49 288.34 228.49 289.129C228.49 289.917 228.834 290.556 229.26 290.556Z" fill="#263238" stroke="#263238" stroke-linecap="round" stroke-linejoin="round"/>
<path d="M240.504 290.917C240.504 291.719 240.159 292.345 239.702 292.345C239.245 292.345 238.9 291.703 238.9 290.917C238.9 290.131 239.245 289.49 239.702 289.49C240.159 289.49 240.504 290.131 240.504 290.917Z" fill="#263238" stroke="#263238" stroke-linecap="round" stroke-linejoin="round"/>
<path d="M91.7755 181.143C99.4147 171.418 97.7237 157.341 87.9986 149.702C78.2735 142.063 64.1969 143.754 56.5578 153.479C48.9186 163.204 50.6096 177.281 60.3347 184.92C70.0598 192.559 84.1363 190.868 91.7755 181.143Z" stroke="#263238" stroke-miterlimit="10"/>
<path d="M65.5715 173.232C65.5715 173.232 80.6892 174.034 85.8942 160.144" stroke="#263238" stroke-width="2" stroke-linecap="round" stroke-linejoin="round"/>
<path d="M77.7941 156.342C78.5961 157.473 78.7805 158.7 78.2352 159.085C77.6898 159.47 76.6312 158.86 75.8292 157.729C75.0272 156.598 74.8427 155.379 75.3881 154.994C75.9334 154.609 76.9921 155.219 77.7941 156.342Z" fill="#263238"/>
<path d="M67.9936 162.613C68.7956 163.736 68.9881 164.963 68.4347 165.348C67.8813 165.733 66.8307 165.132 66.0287 164.001C65.2267 162.87 65.0422 161.643 65.5876 161.266C66.1329 160.889 67.1996 161.483 67.9936 162.613Z" fill="#263238"/>
<path d="M329.285 160.865C329.418 163.996 330.476 167.017 332.325 169.547C334.174 172.076 336.732 174.001 339.675 175.077C342.618 176.154 345.813 176.334 348.858 175.594C351.903 174.855 354.661 173.229 356.782 170.923C358.904 168.617 360.294 165.733 360.777 162.637C361.26 159.541 360.814 156.371 359.496 153.528C358.178 150.686 356.047 148.297 353.372 146.665C350.697 145.034 347.598 144.231 344.467 144.36C342.386 144.446 340.342 144.941 338.453 145.817C336.563 146.693 334.865 147.933 333.455 149.466C332.045 150.999 330.951 152.794 330.235 154.75C329.52 156.706 329.197 158.784 329.285 160.865Z" stroke="#263238" stroke-miterlimit="10"/>
<path d="M352.503 160.135C352.503 160.135 344.066 166.744 335.396 160.817" stroke="#263238" stroke-width="2" stroke-linecap="round" stroke-linejoin="round"/>
<path d="M339.43 157.088C339.904 157.088 340.289 156.298 340.289 155.323C340.289 154.349 339.904 153.559 339.43 153.559C338.956 153.559 338.572 154.349 338.572 155.323C338.572 156.298 338.956 157.088 339.43 157.088Z" fill="#263238"/>
<path d="M346.785 154.979C346.785 155.957 347.17 156.743 347.643 156.743C348.116 156.743 348.501 155.941 348.501 154.979C348.501 154.016 348.116 153.214 347.643 153.214C347.17 153.214 346.785 153.984 346.785 154.979Z" fill="#263238"/>
<path d="M103.373 346.365C111.531 337.975 111.344 324.561 102.954 316.402C94.5647 308.244 81.15 308.431 72.9915 316.821C64.8331 325.21 65.0204 338.625 73.4099 346.783C81.7994 354.942 95.2141 354.754 103.373 346.365Z" stroke="#263238" stroke-miterlimit="10"/>
<path d="M76.2462 338.5C76.2462 338.5 89.8802 330.729 103.009 328.876C103.009 328.876 106.778 341.291 94.1869 346.103C83.3439 350.234 76.2462 338.5 76.2462 338.5Z" stroke="#263238" stroke-miterlimit="10"/>
<path d="M78.9329 332.517C78.7046 332.516 78.4811 332.453 78.2862 332.334C78.0912 332.215 77.9322 332.046 77.8261 331.844L74.7384 325.869C74.609 325.579 74.5955 325.251 74.7005 324.951C74.8055 324.651 75.0212 324.403 75.3032 324.258C75.5853 324.112 75.9124 324.08 76.2175 324.168C76.5225 324.255 76.7824 324.457 76.9439 324.73L80.0316 330.705C80.1836 330.997 80.2133 331.338 80.114 331.653C80.0148 331.967 79.7947 332.229 79.5023 332.381C79.325 332.468 79.1305 332.515 78.9329 332.517Z" fill="#263238"/>
<path d="M95.438 326.542C95.1528 326.541 94.8765 326.443 94.6548 326.264C94.4331 326.084 94.2793 325.834 94.219 325.556L92.7834 318.763C92.7615 318.464 92.8482 318.167 93.0277 317.927C93.2071 317.687 93.4671 317.52 93.76 317.457C94.0528 317.393 94.3587 317.438 94.6213 317.582C94.884 317.726 95.0857 317.96 95.1894 318.241L96.625 325.042C96.694 325.365 96.6322 325.701 96.4533 325.978C96.2743 326.255 95.9928 326.449 95.6706 326.518L95.438 326.542Z" fill="#263238"/>
<path d="M97.844 344.235C96.6971 341.42 92.7112 340.273 88.8135 341.676C86.8392 342.344 85.1581 343.676 84.0576 345.446" stroke="#263238" stroke-miterlimit="10"/>
<path d="M334.434 237.536C333.604 239.835 333.474 242.329 334.061 244.701C334.648 247.074 335.926 249.22 337.732 250.866C339.538 252.513 341.792 253.587 344.209 253.953C346.626 254.319 349.097 253.96 351.309 252.921C353.522 251.883 355.377 250.211 356.64 248.119C357.903 246.026 358.517 243.606 358.404 241.164C358.292 238.722 357.457 236.369 356.007 234.401C354.557 232.434 352.556 230.94 350.258 230.11C348.731 229.558 347.111 229.313 345.489 229.388C343.868 229.462 342.277 229.856 340.808 230.545C339.338 231.235 338.019 232.207 336.925 233.407C335.832 234.606 334.985 236.01 334.434 237.536Z" stroke="#263238" stroke-miterlimit="10"/>
<path d="M353.032 245.781C353.032 245.781 345.085 241.242 337.425 240.167C337.425 240.167 335.228 247.385 342.55 250.216C348.87 252.63 353.032 245.781 353.032 245.781Z" stroke="#263238" stroke-miterlimit="10"/>
<path d="M351.461 242.284C351.594 242.287 351.725 242.252 351.84 242.184C351.954 242.116 352.048 242.017 352.11 241.899L353.907 238.411C353.995 238.24 354.012 238.042 353.955 237.859C353.898 237.676 353.771 237.523 353.602 237.432C353.43 237.347 353.232 237.332 353.049 237.391C352.867 237.449 352.714 237.576 352.623 237.745L350.819 241.234C350.732 241.404 350.716 241.602 350.775 241.784C350.833 241.966 350.962 242.117 351.132 242.204C351.233 242.258 351.346 242.285 351.461 242.284Z" fill="#263238"/>
<path d="M341.853 238.804C342.019 238.804 342.18 238.746 342.308 238.641C342.437 238.535 342.525 238.389 342.558 238.226L343.4 234.265C343.424 234.17 343.429 234.072 343.414 233.976C343.399 233.88 343.365 233.788 343.313 233.705C343.262 233.623 343.194 233.551 343.114 233.496C343.035 233.44 342.944 233.401 342.849 233.381C342.754 233.361 342.656 233.36 342.56 233.379C342.465 233.398 342.374 233.436 342.294 233.491C342.214 233.546 342.145 233.616 342.093 233.698C342.04 233.78 342.005 233.872 341.989 233.968L341.147 237.93C341.127 238.022 341.125 238.118 341.142 238.211C341.159 238.305 341.194 238.394 341.246 238.473C341.297 238.553 341.364 238.622 341.442 238.676C341.52 238.73 341.607 238.768 341.7 238.788L341.853 238.804Z" fill="#263238"/>
<path d="M340.417 249.118C341.083 247.514 343.416 246.808 345.686 247.634C346.839 248.017 347.819 248.795 348.453 249.831" stroke="#263238" stroke-miterlimit="10"/>
<path d="M320.579 230.576C323.433 220.207 317.341 209.488 306.972 206.634C296.603 203.78 285.884 209.872 283.03 220.24C280.176 230.609 286.268 241.328 296.637 244.182C307.005 247.037 317.725 240.945 320.579 230.576Z" stroke="#263238" stroke-miterlimit="10"/>
<path d="M286.731 222.098C286.554 222.142 286.368 222.12 286.205 222.037C286.043 221.954 285.917 221.815 285.849 221.646C285.782 221.476 285.778 221.289 285.838 221.117C285.899 220.945 286.019 220.801 286.178 220.711L291.03 218.096L287.782 217.984C287.582 217.976 287.393 217.89 287.257 217.743C287.121 217.597 287.048 217.402 287.056 217.202C287.063 217.002 287.15 216.813 287.297 216.677C287.443 216.541 287.638 216.469 287.838 216.476L293.861 216.685C294.024 216.698 294.179 216.762 294.306 216.867C294.432 216.971 294.523 217.112 294.567 217.27C294.59 217.426 294.566 217.585 294.499 217.728C294.432 217.87 294.324 217.99 294.19 218.072L286.891 222.002L286.731 222.098Z" fill="#263238"/>
<path d="M312.692 214.936C312.633 214.944 312.574 214.944 312.515 214.936L304.592 215.193C304.425 215.199 304.261 215.151 304.125 215.054C303.989 214.957 303.889 214.819 303.84 214.659C303.792 214.5 303.797 214.328 303.856 214.172C303.915 214.016 304.024 213.885 304.167 213.797L309.516 210.461C309.689 210.366 309.891 210.337 310.083 210.382C310.276 210.426 310.445 210.54 310.558 210.701C310.663 210.871 310.696 211.075 310.651 211.268C310.606 211.462 310.486 211.63 310.318 211.736L307.334 213.597L312.467 213.436C312.649 213.435 312.825 213.498 312.963 213.616C313.101 213.734 313.192 213.897 313.22 214.077C313.247 214.256 313.209 214.439 313.112 214.593C313.015 214.746 312.866 214.86 312.692 214.912V214.936Z" fill="#263238"/>
<path d="M286.41 225.482C290.541 233.093 297.871 237.432 304.616 235.572C311.361 233.711 315.443 226.244 315.098 217.591L312.491 217.863C304.154 218.719 296.021 220.972 288.431 224.528L286.41 225.482Z" stroke="#263238" stroke-miterlimit="10"/>
<path d="M295.417 234.545C295.352 234.166 295.32 233.783 295.32 233.398C295.32 228.987 299.234 225.378 304.062 225.378C305.661 225.346 307.238 225.75 308.625 226.545C310.013 227.34 311.158 228.498 311.938 229.893" stroke="#263238" stroke-miterlimit="10"/>
<path d="M106.62 239.532C114.079 236.741 117.864 228.433 115.073 220.974C112.283 213.514 103.974 209.73 96.5151 212.52C89.056 215.31 85.2712 223.619 88.0616 231.078C90.8519 238.537 99.1607 242.322 106.62 239.532Z" stroke="#263238" stroke-miterlimit="10"/>
<path d="M112.753 223.566C112.874 223.599 113.003 223.59 113.118 223.54C113.233 223.491 113.328 223.404 113.387 223.293C113.423 223.229 113.446 223.159 113.454 223.086C113.463 223.013 113.456 222.939 113.435 222.868C113.414 222.798 113.379 222.732 113.332 222.676C113.285 222.619 113.228 222.573 113.162 222.539L109.569 220.598L111.975 220.518C112.122 220.51 112.26 220.445 112.36 220.338C112.46 220.23 112.515 220.088 112.513 219.941C112.511 219.867 112.494 219.795 112.464 219.728C112.433 219.661 112.39 219.601 112.336 219.551C112.283 219.501 112.22 219.462 112.151 219.437C112.082 219.412 112.009 219.4 111.935 219.403L107.476 219.556C107.355 219.563 107.239 219.609 107.146 219.688C107.054 219.766 106.989 219.872 106.962 219.991C106.935 220.109 106.947 220.233 106.996 220.344C107.045 220.455 107.129 220.547 107.235 220.606L112.633 223.518L112.753 223.566Z" fill="#263238"/>
<path d="M93.5373 218.28H93.6656L99.5283 218.465C99.6513 218.471 99.7729 218.436 99.8736 218.365C99.9744 218.294 100.049 218.191 100.085 218.073C100.12 217.955 100.116 217.829 100.072 217.714C100.028 217.599 99.9465 217.502 99.841 217.438L95.8792 214.968C95.8162 214.923 95.7444 214.892 95.6686 214.876C95.5928 214.861 95.5146 214.862 95.439 214.878C95.3634 214.895 95.2921 214.927 95.2298 214.973C95.1675 215.019 95.1155 215.077 95.0772 215.144C95.0322 215.208 95.001 215.279 94.9855 215.355C94.97 215.431 94.9706 215.509 94.9873 215.585C95.0039 215.66 95.0362 215.732 95.0821 215.794C95.1279 215.856 95.1864 215.908 95.2536 215.946L97.4591 217.318L93.6576 217.198C93.5849 217.195 93.5125 217.208 93.4446 217.234C93.3766 217.259 93.3144 217.298 93.2616 217.348C93.2087 217.398 93.1661 217.458 93.1364 217.524C93.1067 217.591 93.0903 217.662 93.0882 217.735C93.0893 217.864 93.1345 217.988 93.2162 218.087C93.298 218.186 93.4113 218.255 93.5373 218.28Z" fill="#263238"/>
<path d="M112.994 226.076C109.938 231.69 104.509 234.898 99.5122 233.543C94.5157 232.187 91.4922 226.637 91.7488 220.229L93.6817 220.43C99.8482 221.066 105.864 222.733 111.478 225.362L112.994 226.076Z" stroke="#263238" stroke-miterlimit="10"/>
<path d="M106.329 232.78C106.371 232.499 106.392 232.215 106.393 231.93C106.393 228.666 103.498 226.02 99.9212 226.02C98.7389 225.999 97.5729 226.298 96.5465 226.885C95.5202 227.472 94.6716 228.326 94.0907 229.356" stroke="#263238" stroke-miterlimit="10"/>
<path d="M337.145 87.3871C338.802 75.1319 330.21 63.854 317.955 62.197C305.7 60.54 294.422 69.1315 292.765 81.3867C291.108 93.6419 299.699 104.92 311.954 106.577C324.21 108.234 335.488 99.6423 337.145 87.3871Z" stroke="#263238" stroke-miterlimit="10"/>
<path d="M305.73 77.4815C305.73 78.861 306.268 79.9838 306.941 79.9838C307.615 79.9838 308.144 78.861 308.144 77.4815C308.144 76.1021 307.607 74.9873 306.941 74.9873C306.276 74.9873 305.73 76.1021 305.73 77.4815Z" fill="#263238"/>
<path d="M317.327 76.9923C317.327 78.3717 317.865 79.4865 318.53 79.4865C319.196 79.4865 319.741 78.3717 319.741 76.9923C319.741 75.6128 319.196 74.498 318.53 74.498C317.865 74.498 317.327 75.6208 317.327 76.9923Z" fill="#263238"/>
<path d="M304.584 70.3916L310.061 76.3184" stroke="#263238" stroke-width="2" stroke-linecap="round" stroke-linejoin="round"/>
<path d="M319.236 69.9507L314.208 76.1662" stroke="#263238" stroke-width="2" stroke-linecap="round" stroke-linejoin="round"/>
<path d="M304.142 89.6395C304.142 89.6395 311.36 81.0501 321.313 88.0355" stroke="#263238" stroke-width="2" stroke-linecap="round" stroke-linejoin="round"/>
<path d="M55.3881 277.426C64.0784 277.339 71.0529 270.224 70.966 261.533C70.8791 252.843 63.7637 245.869 55.0734 245.955C46.383 246.042 39.4086 253.158 39.4955 261.848C39.5824 270.538 46.6977 277.513 55.3881 277.426Z" stroke="#263238" stroke-miterlimit="10"/>
<path d="M55.3941 253.97C56.0598 254.683 56.3164 255.517 55.9716 255.838C55.6267 256.159 54.8167 255.838 54.151 255.124C53.4854 254.411 53.2368 253.585 53.5816 253.264C53.9265 252.943 54.7365 253.264 55.3941 253.97Z" fill="#263238"/>
<path d="M49.1947 259.271C49.8604 259.985 50.117 260.819 49.7722 261.139C49.4273 261.46 48.6173 261.14 47.9516 260.434C47.286 259.728 47.0374 258.886 47.3822 258.565C47.7271 258.244 48.5371 258.565 49.1947 259.271Z" fill="#263238"/>
<path d="M52.5952 249.775L52.6032 255.445" stroke="#263238" stroke-width="2" stroke-linecap="round" stroke-linejoin="round"/>
<path d="M44.8398 256.56L50.4057 257.354" stroke="#263238" stroke-width="2" stroke-linecap="round" stroke-linejoin="round"/>
<path d="M62.0347 259.463C62.0347 259.463 54.1911 258.517 52.4107 266.85" stroke="#263238" stroke-width="2" stroke-linecap="round" stroke-linejoin="round"/>
<path d="M118.528 40.3086C121.394 42.6316 123.605 45.6629 124.94 49.1025C126.275 52.5421 126.689 56.2707 126.141 59.9195C125.592 63.5682 124.101 67.0105 121.814 69.9057C119.526 72.8009 116.523 75.0487 113.1 76.4266C109.677 77.8045 105.954 78.2647 102.299 77.7617C98.6435 77.2588 95.183 75.81 92.2596 73.5589C89.3362 71.3078 87.0513 68.3323 85.631 64.9269C84.2108 61.5215 83.7044 57.8043 84.1619 54.1431" stroke="#263238" stroke-miterlimit="10"/>
<path d="M98.3333 36.7395C99.38 36.3889 100.453 36.1208 101.541 35.9375" stroke="#263238" stroke-miterlimit="10"/>
<path d="M93.2566 63.727C93.2566 63.727 106.891 55.9476 120.011 54.103C120.011 54.103 123.781 66.526 111.229 71.33C100.346 75.4523 93.2566 63.727 93.2566 63.727Z" stroke="#263238" stroke-miterlimit="10"/>
<path d="M114.879 69.4534C113.74 66.6384 109.746 65.4915 105.848 66.895C103.875 67.566 102.197 68.9012 101.1 70.6724" stroke="#263238" stroke-miterlimit="10"/>
<path d="M99.9453 38.7204C99.2295 37.5321 98.1478 36.6077 96.8624 36.0859C95.577 35.5641 94.1571 35.473 92.8155 35.8262C91.474 36.1794 90.283 36.958 89.4213 38.0451C88.5595 39.1323 88.0733 40.4695 88.0355 41.8562C86.7956 41.2352 85.3878 41.0325 84.023 41.2787C82.6583 41.5249 81.41 42.2067 80.4653 43.2219C79.5205 44.2371 78.9301 45.5311 78.7825 46.91C78.635 48.289 78.9381 49.6786 79.6466 50.8707C82.6541 55.8912 96.8896 56.7574 96.8896 56.7574C96.8896 56.7574 103.787 45.1284 99.9453 38.7204Z" stroke="#263238" stroke-miterlimit="10"/>
<path d="M120.476 36.2906C120.599 35.1758 120.357 34.0513 119.786 33.0859C119.215 32.1205 118.347 31.3665 117.31 30.9371C116.274 30.5076 115.127 30.426 114.041 30.7044C112.954 30.9828 111.987 31.6063 111.286 32.4811C110.797 31.4698 109.993 30.6448 108.995 30.1308C107.996 29.6168 106.858 29.4417 105.751 29.6319C104.644 29.8221 103.629 30.3673 102.86 31.1851C102.09 32.003 101.608 33.049 101.485 34.1653C100.964 38.857 109.682 46.3798 109.682 46.3798C109.682 46.3798 119.803 42.2896 120.476 36.2906Z" stroke="#263238" stroke-miterlimit="10"/>
<path d="M298.641 302.242C296.454 304.01 294.767 306.319 293.747 308.94C292.727 311.561 292.409 314.403 292.826 317.185C293.242 319.967 294.378 322.591 296.12 324.799C297.863 327.006 300.152 328.72 302.761 329.771C305.37 330.821 308.208 331.172 310.995 330.788C313.781 330.405 316.419 329.3 318.646 327.583C320.874 325.866 322.615 323.597 323.696 321.001C324.777 318.404 325.161 315.571 324.81 312.78" stroke="#263238" stroke-miterlimit="10"/>
<path d="M314.015 299.523C313.215 299.248 312.395 299.036 311.561 298.89" stroke="#263238" stroke-miterlimit="10"/>
<path d="M317.889 320.078C317.889 320.078 307.511 314.152 297.502 312.724C297.502 312.724 294.631 322.18 304.199 325.837C312.483 329.013 317.889 320.078 317.889 320.078Z" stroke="#263238" stroke-miterlimit="10"/>
<path d="M301.416 324.441C302.282 322.3 305.321 321.426 308.289 322.492C309.794 323 311.075 324.015 311.914 325.364" stroke="#263238" stroke-miterlimit="10"/>
<path d="M312.78 301.031C313.325 300.123 314.15 299.417 315.131 299.019C316.112 298.62 317.196 298.552 318.22 298.823C319.243 299.095 320.151 299.692 320.806 300.524C321.461 301.356 321.827 302.378 321.851 303.437C322.796 302.951 323.873 302.786 324.92 302.969C325.967 303.151 326.926 303.669 327.652 304.446C328.377 305.222 328.83 306.214 328.941 307.271C329.052 308.327 328.815 309.392 328.267 310.302C325.973 314.127 315.13 314.785 315.13 314.785C315.13 314.785 309.869 305.915 312.78 301.031Z" stroke="#263238" stroke-miterlimit="10"/>
<path d="M297.157 299.186C297.059 298.336 297.24 297.477 297.674 296.74C298.107 296.002 298.769 295.426 299.559 295.098C300.349 294.769 301.225 294.708 302.053 294.922C302.882 295.135 303.618 295.613 304.151 296.283C304.525 295.516 305.138 294.89 305.898 294.501C306.658 294.112 307.524 293.98 308.365 294.124C309.207 294.269 309.978 294.683 310.565 295.303C311.151 295.924 311.52 296.718 311.617 297.566C312.018 301.143 305.37 306.869 305.37 306.869C305.37 306.869 297.662 303.749 297.157 299.186Z" stroke="#263238" stroke-miterlimit="10"/>
</svg>
